<svg xmlns="http://www.w3.org/2000/svg" width="75" height="75" viewBox="0 0 75 75"><defs><linearGradient id="a" x1="-1.725%" x2="101.725%" y1="49.94%" y2="49.94%"><stop offset="0%" stop-color="#3377DA"/><stop offset="100%" stop-color="#6AE6A7"/></linearGradient></defs><path fill="#515982" d="M56.871 15.7933c.919 0 1.664.652 1.664 1.4564v42.9079H14.2277V30.977c0-.8044.745-1.4564 1.664-1.4564l16.276-.0003.0004-12.227c0-.7797.5949-1.4204 1.3555-1.4931l.1445-.0069zm-.6888 2.0804H34.521a.5.5 0 00-.5.5v39.7145l7.4898-.0009.001-4.766c0-.3403.289-.6215.6638-.666l.1042-.0061h6.1437c.4242 0 .768.3009.768.6721l-.0007 4.766 7.4915.0009V18.3737a.5.5 0 00-.5-.5zM47.463 54.2659h-4.2229l-.0004 3.8214h4.223l.0003-3.8214zM31.6612 31.6115H16.7726a.5.5 0 00-.5.5v25.955h15.8886v-25.955a.5.5 0 00-.5-.5z"/><path fill="url(#a)" d="M28.0308 49.1893c.5834 0 1.0563.473 1.0563 1.0563 0 .5417-.4077.9882-.933 1.0492l-.1233.0071H20.275c-.5834 0-1.0563-.473-1.0563-1.0563 0-.5417.4078-.9882.9331-1.0492l.1232-.007h7.7558zm0-6.5247c.5834 0 1.0563.4729 1.0563 1.0563 0 .5417-.4077.9881-.933 1.0492l-.1233.007H20.275c-.5834 0-1.0563-.4729-1.0563-1.0562 0-.5417.4078-.9882.9331-1.0492l.1232-.0071h7.7558zm24.1217-2.1126c.5833 0 1.0563.473 1.0563 1.0563 0 .5417-.4078.9882-.9331 1.0492l-.1232.007H38.2323c-.5834 0-1.0563-.4728-1.0563-1.0562 0-.5417.4078-.9882.933-1.0492l.1233-.0071h13.9202zm-24.1217-4.4122c.5834 0 1.0563.473 1.0563 1.0563 0 .5417-.4077.9882-.933 1.0492l-.1233.0071H20.275c-.5834 0-1.0563-.4729-1.0563-1.0563 0-.5417.4078-.9881.9331-1.0492l.1232-.007h7.7558zm24.1217-4.0415c.5833 0 1.0563.4729 1.0563 1.0563 0 .5417-.4078.9881-.9331 1.0492l-.1232.007H38.2323c-.5834 0-1.0563-.4729-1.0563-1.0562 0-.5417.4078-.9882.933-1.0492l.1233-.0071h13.9202zm0-8.4537c.5833 0 1.0563.4729 1.0563 1.0563 0 .5417-.4078.9881-.9331 1.0491l-.1232.0072H38.2323c-.5834 0-1.0563-.473-1.0563-1.0563 0-.5417.4078-.9882.933-1.0492l.1233-.0071h13.9202z"/></svg>
