<svg xmlns="http://www.w3.org/2000/svg" fill="none" viewBox="0 0 167 45"><g clip-path="url(#a)"><path fill="#232323" fill-rule="evenodd" d="M99.009 30.15c.98-.226 1.929-.569 2.827-1.02v-8.695H95.04v3.201h3.143v2.99a5.069 5.069 0 0 1-1.164.337c-.42.069-.862.104-1.327.104-.806 0-1.524-.128-2.151-.382a4.391 4.391 0 0 1-1.584-1.067c-.427-.455-.75-1-.966-1.634a6.421 6.421 0 0 1-.327-2.087c-.007-.7.115-1.396.361-2.051a4.837 4.837 0 0 1 1.013-1.624 4.646 4.646 0 0 1 1.537-1.066 4.829 4.829 0 0 1 1.931-.382c.806 0 1.528.143 2.165.428.586.25 1.11.626 1.535 1.101l2.513-2.85c-.697-.665-1.605-1.194-2.722-1.59-1.117-.393-2.328-.59-3.63-.59a10.05 10.05 0 0 0-3.514.604 8.407 8.407 0 0 0-2.84 1.726 7.942 7.942 0 0 0-1.897 2.725c-.459 1.066-.687 2.257-.687 3.57 0 1.297.225 2.476.674 3.535a8.03 8.03 0 0 0 1.875 2.723 8.41 8.41 0 0 0 2.862 1.762c1.11.418 2.324.626 3.642.626 1.187.01 2.371-.122 3.527-.394Zm19.157-6.213c0 .989-.167 1.89-.5 2.7a5.864 5.864 0 0 1-1.432 2.088 6.605 6.605 0 0 1-2.245 1.355c-.876.326-1.851.487-2.921.487-1.085 0-2.064-.161-2.933-.485a6.373 6.373 0 0 1-2.211-1.357 5.89 5.89 0 0 1-1.396-2.087 7.186 7.186 0 0 1-.489-2.7V13.713h3.958v9.9c0 .447.058.872.175 1.273.116.403.294.762.535 1.079.241.317.559.568.955.753.395.186.873.278 1.43.278.56 0 1.036-.092 1.431-.278.378-.17.709-.429.966-.753.25-.32.433-.687.537-1.079.108-.4.162-.827.162-1.274v-9.9h3.981v10.224h-.003Zm12.569 2.968 1.279 3.223h4.422l-6.843-16.414h-3.863l-6.912 16.413h4.328l1.212-3.222h6.377Zm-5.238-3.176 2.095-5.634 2.048 5.634h-4.143Zm42.118-1.855c0 1.437-.269 2.678-.804 3.721a7.502 7.502 0 0 1-2.117 2.574 8.834 8.834 0 0 1-2.967 1.483 12.07 12.07 0 0 1-3.353.476h-6.143V13.713h5.958c1.164 0 2.311.136 3.444.405 1.132.271 2.141.72 3.026 1.345.884.625 1.597 1.464 2.14 2.516.545 1.05.816 2.348.816 3.894Zm-4.597-2.306c.302.609.454 1.38.454 2.306 0 .91-.152 1.677-.454 2.294a3.97 3.97 0 0 1-1.21 1.484 4.898 4.898 0 0 1-1.746.802 8.648 8.648 0 0 1-2.06.242h-1.885v-9.598h1.979a8.504 8.504 0 0 1 1.989.233c.62.143 1.205.406 1.723.776.518.38.934.881 1.21 1.46Zm-78.334 2.306c0 1.437-.268 2.678-.803 3.721a7.507 7.507 0 0 1-2.118 2.574 8.845 8.845 0 0 1-2.967 1.483c-1.09.316-2.218.476-3.353.476H69.3V13.713h5.958c1.164 0 2.311.136 3.444.405 1.133.271 2.141.72 3.026 1.345.884.625 1.598 1.464 2.14 2.516.545 1.05.816 2.348.816 3.894Zm-4.597-2.306c.303.609.454 1.38.454 2.306 0 .91-.151 1.677-.454 2.295a3.967 3.967 0 0 1-1.21 1.483 4.9 4.9 0 0 1-1.746.802 8.648 8.648 0 0 1-2.06.242h-1.885v-9.598h1.98a8.496 8.496 0 0 1 1.99.233c.619.143 1.204.407 1.721.776.518.38.934.881 1.21 1.46Zm-16.466 10.56-1.28-3.223h-6.377l-1.21 3.223h-4.328l6.91-16.414H61.2l6.842 16.413h-4.421Zm-6.516-6.399 2.093-5.634h.002l2.047 5.634h-4.142Zm89.408 6.399-3.561-6.515h-1.35v6.515h-3.909V13.713h6.283a11.02 11.02 0 0 1 2.316.242 6.062 6.062 0 0 1 2.026.824 4.336 4.336 0 0 1 1.43 1.53c.357.634.535 1.421.535 2.364 0 1.113-.302 2.05-.907 2.805-.606.758-1.444 1.299-2.514 1.624l4.306 7.024h-4.655Zm-.406-12.322c.162.24.243.553.243.938 0 .418-.089.758-.268 1.02a1.76 1.76 0 0 1-.686.602c-.28.14-.589.237-.932.291-.341.055-.674.08-1 .08h-1.884v-3.824h2.117c.308 0 .615.024.92.07.3.04.591.13.862.266.253.13.469.32.628.557Z" clip-rule="evenodd"/><path fill="#68BC71" d="M18.049 4C12.408 4 5.602 5.327 0 8.247 0 14.553-.077 30.265 18.049 41c18.126-10.735 18.05-26.447 18.05-32.753C30.495 5.327 23.69 4 18.048 4Z"/><path fill="#67B279" d="M18.03 40.989C-.077 30.255 0 14.552 0 8.247 5.597 5.33 12.393 4.003 18.03 4v36.989Z"/><path fill="#fff" d="m17.39 28.688 10.914-14.71c-.798-.642-1.5-.19-1.887.161h-.014l-9.1 9.467-3.43-4.126c-1.635-1.89-3.858-.447-4.379-.067l7.897 9.274"/></g><defs><clipPath id="a"><path fill="#fff" d="M0 0h167v45H0z"/></clipPath></defs></svg>
