<svg xmlns="http://www.w3.org/2000/svg" width="62" height="14" viewBox="0 0 62 14"><path d="M48.7765 9.8128l-.472-1.1885H45.953l-.4467 1.1885h-1.5961L46.459 3.76h1.4247l2.5231 6.0527h-1.6309.0006zm-1.631-4.437l-.7722 2.0775h1.5278l-.7555-2.0776zM43.6698 7.53c0 .3645-.0615.6965-.1841.9958a2.1648 2.1648 0 01-.5282.7697 2.4358 2.4358 0 01-.828.4998c-.323.12-.6824.1794-1.077.1794-.4003 0-.7612-.0595-1.0816-.1789a2.3506 2.3506 0 01-.8154-.5003 2.1706 2.1706 0 01-.5145-.7697 2.6504 2.6504 0 01-.1805-.9958V3.76h1.4594v3.6505c0 .1652.0216.322.0647.4698a1.194 1.194 0 00.1973.3978c.0889.1168.2062.2093.352.2777.1457.0684.3219.1026.5276.1026.2062 0 .382-.0342.5277-.1026a.9627.9627 0 00.3561-.2777 1.1048 1.1048 0 00.1978-.3978c.04-.1478.06-.305.06-.4698v-3.651h1.4678v3.7705h-.001zm-6.0216 1.915a4.6811 4.6811 0 01-1.0427.376 5.487 5.487 0 01-1.3004.1453c-.4862 0-.9339-.0768-1.3431-.231a3.1013 3.1013 0 01-1.0554-.6497 2.9619 2.9619 0 01-.6913-1.0043c-.1657-.3904-.2488-.8249-.2488-1.3036 0-.484.0842-.9233.2536-1.3163a2.9287 2.9287 0 01.6997-1.0048 3.1002 3.1002 0 011.0469-.6366 3.7058 3.7058 0 011.2957-.2225c.4804 0 .927.0726 1.339.2178.4119.1457.7464.3409 1.0037.586l-.927 1.0511a1.6046 1.6046 0 00-.566-.406c-.2347-.1053-.5009-.158-.7981-.158-.2578 0-.495.0474-.7123.141a1.713 1.713 0 00-.5666.393 1.7834 1.7834 0 00-.3735.5987 2.0922 2.0922 0 00-.1331.7566c0 .2788.0405.5355.1204.7696.08.2336.1989.4346.3562.6024.1573.1683.352.2993.584.3935.2314.0937.496.141.7933.141.1715 0 .3346-.0132.4892-.0384.1547-.0263.2978-.0673.4293-.1242V7.4191h-1.159V6.2385h2.5063V9.445zm24.2563-2.6758c0 .5298-.0989.9875-.2962 1.372a2.7683 2.7683 0 01-.7807.9491 3.2612 3.2612 0 01-1.0942.5472 4.45 4.45 0 01-1.2363.1752h-2.2654V3.76h2.197c.4293 0 .8522.05 1.27.1494.4177.1.7896.2652 1.1158.4961.3262.2305.5892.5398.7891.9275.201.3872.301.866.301 1.4362zm-1.5277 0c0-.342-.0558-.626-.1673-.8506a1.433 1.433 0 00-.4461-.5388 1.7887 1.7887 0 00-.6356-.2861 3.1331 3.1331 0 00-.7333-.0858h-.7297v3.5395h.695c.263 0 .5166-.03.7596-.0894.243-.0605.4577-.1584.644-.2957a1.4625 1.4625 0 00.446-.5471c.1116-.2278.1674-.5103.1674-.846zm-29.0537 0c0 .5298-.099.9875-.2962 1.372a2.7683 2.7683 0 01-.7807.9491 3.2612 3.2612 0 01-1.0943.5472 4.45 4.45 0 01-1.2363.1752h-2.2653V3.76h2.197c.4292 0 .8522.05 1.27.1494.4176.1.7896.2652 1.1157.4961.3262.2305.5893.5398.7892.9275.201.3872.3009.866.3009 1.4362zm-1.5278 0c0-.342-.0557-.626-.1673-.8506a1.433 1.433 0 00-.446-.5388 1.7887 1.7887 0 00-.635-.2861 3.1331 3.1331 0 00-.734-.0858h-.7296v3.5395h.695c.263 0 .5165-.03.7596-.0894.243-.0605.4577-.1584.644-.2957a1.4625 1.4625 0 00.446-.5471c.1116-.2278.1673-.5103.1673-.846zM23.556 9.8128l-.472-1.1885h-2.3516l-.446 1.1885H18.69L21.2384 3.76h1.4247l2.523 6.0527h-1.6308.0006zm-1.631-4.437l-.7717 2.0775h1.5272l-.7549-2.0776h-.0005zm32.1982 4.437L52.81 7.4106h-.4977v2.4022h-1.4415V3.76h2.3169c.287-.0004.5732.0296.8538.0895.2778.06.5261.161.747.3035.2195.1422.4006.336.5277.5645.1316.2336.1973.524.1973.8717 0 .4104-.1115.7555-.3346 1.0343-.2235.2794-.5324.4788-.927.5987l1.5878 2.5905h-1.7166zm-.06-4.1977c0-.142-.03-.2578-.09-.3462a.6166.6166 0 00-.2314-.2051 1.0096 1.0096 0 00-.3178-.0984 2.351 2.351 0 00-.3393-.0258h-.7807v1.4105h.695c.1199 0 .243-.0095.3687-.0295.1263-.02.2404-.0558.3436-.1073a.6509.6509 0 00.253-.222c.0658-.0968.099-.222.099-.3762zM6.7505.178c2.0807 0 4.5901.4893 6.656 1.5662v.2439c-.0055 2.4656-.1943 8.0071-6.656 11.834C.4008 10.0612.109 4.6443.0956 2.1183L.095 1.7442C2.161.6672 4.6704.178 6.7505.178zm3.086 3.7389h-.0052L6.4753 7.408 5.2113 5.8866c-.6034-.6971-1.423-.1652-1.615-.0248L6.508 9.2814l4.0246-5.424c-.2946-.2367-.5535-.07-.696.0595z"/></svg>
