<svg width="52" height="17" viewBox="0 0 52 17" xmlns="http://www.w3.org/2000/svg"><path d="M49.498 14.9H46.44v1.246h2.944c1.246 0 2.039-.793 2.039-1.925 0-1.132-.68-1.698-1.812-1.698h-1.359c-.34 0-.566-.227-.566-.567 0-.34.226-.566.566-.566h2.604l.567-1.245h-3.058c-1.245 0-2.038.792-2.038 1.811 0 1.133.68 1.699 1.812 1.699h1.359c.34 0 .566.226.566.566.113.453-.114.68-.566.68zm-5.549 0h-3.057v1.246h2.944c1.245 0 2.038-.793 2.038-1.925 0-1.132-.68-1.698-1.812-1.698h-1.359c-.34 0-.566-.227-.566-.567 0-.34.227-.566.566-.566h2.605l.566-1.245h-3.057c-1.246 0-2.039.792-2.039 1.811 0 1.133.68 1.699 1.812 1.699h1.359c.34 0 .566.226.566.566.113.453-.226.68-.566.68zm-3.963-3.623v-1.246H35.23v6.002h4.756v-1.246h-3.397v-1.245h3.284v-1.246h-3.284v-1.132h3.397v.113zm-7.7 0c.566 0 .792.34.792.68s-.226.679-.792.679h-1.699v-1.472l1.699.113zm-1.699 2.604h.68l1.811 2.152h1.699l-2.038-2.265c1.019-.226 1.585-.906 1.585-1.812 0-1.132-.793-1.925-2.038-1.925h-3.17v6.002h1.358l.113-2.152zm-3.623-1.811c0 .453-.227.792-.793.792H24.36v-1.585h1.699c.566 0 .906.34.906.793zM23 10.03v6.002h1.36v-2.038h1.811c1.246 0 2.152-.793 2.152-2.039 0-1.132-.793-2.038-2.039-2.038L23 10.031zm-2.038 6.002h1.699l-2.378-3.057 2.378-2.945h-1.699l-1.472 1.925-1.472-1.925H16.32l2.378 2.945-2.378 2.944h1.698l1.472-1.925 1.472 2.038zm-5.095-4.756v-1.246H11.11v6.002h4.756v-1.246H12.47v-1.245h3.283v-1.246H12.47v-1.132h3.397v.113zm27.516-8.38l2.378 3.624h1.698V.52H46.1v3.963l-.34-.566L43.61.52h-1.812V6.52h1.358V2.445l.227.453zm-5.888-.113l.453-1.245.452 1.245.567 1.36h-2.039l.567-1.36zm2.378 3.737h1.472L38.74.52h-1.812L34.324 6.52h1.472l.566-1.245h2.944l.567 1.245zm-6.342 0l.567-1.245h-.34c-1.02 0-1.585-.68-1.585-1.699v-.113c0-1.02.566-1.699 1.585-1.699h1.472V.52h-1.585c-1.812 0-2.831 1.245-2.831 2.944v.113c0 1.812 1.019 2.944 2.717 2.944zm-5.095 0h1.359V.633h-1.36V6.52zm-2.944-4.756c.566 0 .792.34.792.68s-.226.68-.792.68h-1.699V1.651l1.699.113zM23.793 4.37h.68l1.811 2.151h1.699l-2.038-2.265c1.019-.226 1.585-.905 1.585-1.811 0-1.133-.793-1.925-2.038-1.925h-3.17V6.52h1.358l.113-2.151zm-2.491-2.605V.52h-4.756V6.52h4.756V5.276h-3.397V4.03h3.284V2.784h-3.284V1.652h3.397v.113zM10.998 6.521h1.245l1.699-4.869v4.87H15.3V.52h-2.264l-1.359 4.076L10.318.52H8.053V6.52h1.36V1.652l1.585 4.87zm-7.36-3.737L4.09 1.54l.453 1.245.566 1.36H3.071l.566-1.36zm2.377 3.737h1.472L4.883.52H3.184L.58 6.52h1.472l.566-1.245h2.944l.453 1.245z" fill="#FFF" fill-rule="nonzero"/></svg>
