<svg width="29" height="18" viewBox="0 0 29 18" xmlns="http://www.w3.org/2000/svg"><g fill-rule="nonzero" fill="none"><path fill="#FF5F00" d="M10.239 2.154h8.366v13.664h-8.366z"/><path d="M11.1 8.988a8.675 8.675 0 013.32-6.831 8.69 8.69 0 100 13.664 8.675 8.675 0 01-3.32-6.833z" fill="#EB001B"/><path d="M27.713 15.035v-.828h.166v-.172h-.396v.172h.156v.828h.074zm.77 0v-1h-.12l-.14.714-.14-.714h-.12v1h.086v-.757l.13.65h.09l.13-.65v.757h.084zM28.48 8.988a8.69 8.69 0 01-14.06 6.831 8.69 8.69 0 000-13.665 8.69 8.69 0 0114.06 6.832v.002z" fill="#F79E1B"/></g></svg>
