<svg xmlns="http://www.w3.org/2000/svg" width="75" height="75" viewBox="0 0 75 75"><defs><linearGradient id="a" x1=".013%" x2="99.99%" y1="50.008%" y2="50.008%"><stop offset="0%" stop-color="#498DF1"/><stop offset="100%" stop-color="#5ADB99"/></linearGradient></defs><path fill="#515982" d="M47.4816 19.2251c.5523 0 1 .4477 1 1 0 .5129-.386.9355-.8834.9933l-.1166.0067H19.5235a1.761 1.761 0 00-1.243.5214 1.7616 1.7616 0 00-.5023 1.0764l-.0079.1756v30.2433a1.7677 1.7677 0 00.5079 1.2558 1.7673 1.7673 0 001.0681.5175l.1727.0098h30.6179a1.761 1.761 0 001.2445-.5269c.2872-.2924.4622-.6745.498-1.0867l.0067-.1783V42.1643c0-.5522.4477-1 1-1 .5128 0 .9355.386.9933.8834l.0069.1166V53.222a3.763 3.763 0 01-1.078 2.6775 3.7623 3.7623 0 01-2.4334 1.1168l-.2314.0086H19.5123a3.7673 3.7673 0 01-2.6594-1.1242c-.648-.6582-1.0296-1.5293-1.0776-2.4395l-.005-.2282V23.0028a3.7617 3.7617 0 011.0897-2.6642 3.762 3.762 0 012.4287-1.1055l.2303-.008h27.9626z"/><path fill="url(#a)" d="M62.4813 18.0399c1.8446 1.5188 2.1621 4.206.76 6.108l-.141.1815-16.572 20.144-8.6667 4.9524a1.003 1.003 0 01-1.0154-.0145l-.1113-.0783-.09-.084a.997.997 0 01-.2519-.8869l.0324-.1187 3.2314-9.4343 16.5287-20.1502c1.5683-1.9081 4.3859-2.1852 6.2958-.619zm-21.397 22.77l-1.414 4.129.799.692 3.788-2.165-3.173-2.656zm14.834-18.673l-13.853 16.886 3.764 3.15 13.876-16.865-3.787-3.171zm1.9304-2.342l-.1169.1324-.5455.6636 3.79 3.172.5762-.7c.8264-1.01.7222-2.4775-.2075-3.3599l-.1319-.1166c-1.0105-.8286-2.4804-.7245-3.3644.2086z"/><path fill="#515982" d="M43.3682 27.2c.5523 0 1 .4478 1 1 0 .513-.386.9356-.8834.9933l-.1166.0068H22.2649c-.5523 0-1-.4477-1-1 0-.5129.386-.9355.8834-.9933l.1166-.0067h21.1033zm-7.8 9.925c.5523 0 1 .4477 1 1 0 .5129-.386.9355-.8834.9933l-.1166.0067H22.3233c-.5523 0-1-.4477-1-1 0-.5128.386-.9355.8834-.9932l.1166-.0068h13.2449zm-2.8386 10.568c.5523 0 1 .4477 1 1 0 .5128-.386.9355-.8834.9932l-.1166.0068H22.3233c-.5523 0-1-.4477-1-1 0-.5129.386-.9355.8834-.9933l.1166-.0067h10.4063z"/></svg>
