<svg xmlns="http://www.w3.org/2000/svg" width="60" height="15" viewBox="0 0 60 15"><path d="M41.4513 3.6843a.1181.1181 0 01.1181.0956l.9836 4.9533 2.3967-4.9645a.135.135 0 01.1237-.0844h1.9404a.1125.1125 0 01.1013.0619.1237.1237 0 010 .1237l-5.5007 10.8045a.1352.1352 0 01-.1237.0788H39.584a.107.107 0 01-.1013-.062.1237.1237 0 010-.1236l1.648-3.0597-1.6873-7.6548a.1181.1181 0 010-.1125.135.135 0 01.1068-.0563h1.901zM8.7679.9003a.135.135 0 01.09.0393.1294.1294 0 010 .1013l-.4556 3.1609h.27a3.7346 3.7346 0 012.1991-.765 3.234 3.234 0 012.4691 1.0912 3.9933 3.9933 0 01.7706 3.2621 4.9888 4.9888 0 01-3.3747 4.2465 4.342 4.342 0 01-1.1642.163 2.5366 2.5366 0 01-2.1992-1.0854l-.1012.7199a.1462.1462 0 01-.1406.1181h-1.738a.1181.1181 0 01-.0956-.0394.1294.1294 0 010-.1012l.6018-4.1508H3.6497a.6413.6413 0 01-.628-.542l-.0076-.0936a.6412.6412 0 01.5906-.6524h4.8482a2.9247 2.9247 0 00-.63 1.4398c-.1743 1.2093.4275 2.3398 1.738 2.3398 1.2473-.0591 2.2756-.979 2.485-2.1947l.0235-.1676c.1687-1.1867-.5118-2.3116-1.7717-2.3116H4.769a.6413.6413 0 01-.6287-.547l-.0068-.0942a.6412.6412 0 01.6355-.6355h1.603l.4556-3.1834A.1462.1462 0 016.968.9002h1.7998zm8.6616 2.784a.1181.1181 0 01.09.045.1181.1181 0 010 .0956l-.63 4.359c-.1462 1.0348 0 1.9685 1.2093 1.9629 1.2092-.0057 1.6873-.8324 1.8729-1.9236l.6355-4.4151a.1519.1519 0 01.1407-.1238h1.7829a.1181.1181 0 01.09.045.1181.1181 0 010 .0956l-1.1249 8.0092a.1462.1462 0 01-.1406.1181H19.668a.1181.1181 0 01-.0956-.0394.1294.1294 0 01-.0282-.1012l.0758-.5364-.0876.0919a2.9754 2.9754 0 01-2.1873.8326c-2.216 0-2.8122-1.6255-2.5366-3.549l.7087-4.8426a.1519.1519 0 01.1406-.1238h1.7717zm19.0442-.2474c2.1991 0 2.8122 1.6198 2.5197 3.5658l-.6974 4.8314a.1406.1406 0 01-.135.1181h-1.783a.1069.1069 0 01-.09-.0394.1125.1125 0 01-.028-.1012l.6299-4.314c.1462-1.018.0394-1.9853-1.1924-1.9797-1.2317.0056-1.6873.8493-1.8617 1.9235l-.6355 4.4208a.1406.1406 0 01-.135.1181h-1.7998a.1237.1237 0 01-.0956-.0393.1237.1237 0 010-.1013l1.1249-8.0035a.1462.1462 0 01.135-.1237h1.6873a.1069.1069 0 01.09.045.1181.1181 0 01.028.0956l-.0843.5624.0056-.0056a3.0147 3.0147 0 012.3173-.973zm-8.3747 0c2.199 0 2.8122 1.6198 2.5197 3.5658l-.6974 4.8314a.135.135 0 01-.135.1181h-1.783a.1069.1069 0 01-.09-.0394.1125.1125 0 01-.028-.1012l.6242-4.314c.1463-1.018.0394-1.9853-1.1923-1.9797-1.2318.0056-1.6874.8493-1.856 1.9235l-.6413 4.4208a.1406.1406 0 01-.135.1181H22.902a.1237.1237 0 01-.0956-.0393.1237.1237 0 010-.1013l1.1249-8.0035a.1462.1462 0 01.1406-.1237h1.6873a.1069.1069 0 01.09.045.1012.1012 0 01.0281.0956l-.0823.5421.1281-.1292a3.0147 3.0147 0 012.1759-.8291zm18.378 7.3843l.0793.007a.4387.4387 0 01.345.556.63.63 0 01-.5624.5624c-.2869 0-.4668-.2306-.4218-.5625a.6187.6187 0 01.5624-.5624l-.0025-.0005zM58.5439 6.654L58.375 7.824H59.5l-.1069.748h-1.1248l-.2756 1.9123c-.0563.4275.0787.5625.3374.5625a1.4005 1.4005 0 00.5625-.1744l.1462.7537a2.0585 2.0585 0 01-1.0349.3093c-.6468 0-1.108-.3993-.9786-1.271l.298-2.0924h-.5624l.1013-.748h.5624l.1687-1.1699h.9506zm-3.8696.9562l.0112.0168c1.3892 0 1.8504.973 1.5298 2.5141h-2.919a.9393.9393 0 00.9899.9618 1.648 1.648 0 001.1249-.4724l.433.5624a2.4466 2.4466 0 01-1.766.7256c-1.2318 0-1.9067-.8718-1.7267-2.143.1063-1.2097 1.1086-2.1441 2.3229-2.1653zm-4.0552 0c.9111 0 1.378.6299 1.2317 1.6367l-.3824 2.6434h-.9674l.3374-2.3453c.0844-.5906-.18-.9562-.7424-.9562a1.2824 1.2824 0 00-1.2093 1.2205l-.3037 2.081h-.9617l.613-4.2351h.9618l-.1125.7874a1.7604 1.7604 0 011.5355-.8324zm4.0636.795l-.1153.0036a1.2767 1.2767 0 00-1.2036 1.0237l2.0866.0112a.8268.8268 0 00-.883-1.0349zM1.2424 6.2771a.748.748 0 11.0113 1.496.748.748 0 01-.0113-1.496z"/></svg>
