<svg xmlns="http://www.w3.org/2000/svg" fill="none" viewBox="0 0 149 45"><g clip-path="url(#a)"><path fill="#414F7B" fill-rule="evenodd" d="M3.612 20.742a1.88 1.88 0 0 0-1.747-1.157A1.885 1.885 0 0 0 0 21.475c0 .766.46 1.456 1.164 1.747a1.872 1.872 0 0 0 2.05-.416 1.898 1.898 0 0 0 .398-2.064Zm22.446-8.333a9.35 9.35 0 0 0-5.526 1.932h-.678L21 6.355a.328.328 0 0 0 0-.256.338.338 0 0 0-.226-.099H16.25a.368.368 0 0 0-.354.298l-1.144 8.043h-4.027a1.615 1.615 0 0 0-1.597 1.606c0 .89.712 1.612 1.597 1.62h13.89c3.166 0 4.876 2.842 4.452 5.84-.352 3.28-3.027 5.813-6.303 5.969-3.292 0-4.804-2.856-4.366-5.912a7.41 7.41 0 0 1 1.582-3.637H7.801c-.851.067-1.502.79-1.484 1.648a1.616 1.616 0 0 0 1.596 1.606h5.653l-1.512 10.487a.329.329 0 0 0 0 .256c.06.068.149.105.24.1h4.367a.368.368 0 0 0 .353-.3l.254-1.818a6.361 6.361 0 0 0 5.526 2.742 10.85 10.85 0 0 0 2.925-.412c4.681-1.584 8.001-5.785 8.478-10.729.588-2.9-.12-5.913-1.936-8.241a8.106 8.106 0 0 0-6.203-2.757ZM48.039 32.22l.134-.145h-.113l-.02.145Zm-5.716 2.327a7.454 7.454 0 0 0 5.716-2.327l-.191 1.347a.328.328 0 0 0 .07.256c.061.068.15.105.24.099h4.24a.368.368 0 0 0 .354-.298l2.826-20.236a.3.3 0 0 0 0-.241.296.296 0 0 0-.226-.114h-4.48a.382.382 0 0 0-.353.313l-1.597 11.155c-.466 2.756-1.667 4.845-4.706 4.86-3.038.014-3.405-2.345-3.038-4.96l1.583-11.013a.3.3 0 0 0 0-.241.296.296 0 0 0-.226-.114h-4.452a.382.382 0 0 0-.353.313l-1.78 12.235c-.693 4.86.805 8.966 6.373 8.966Zm21.233-19.72a4.453 4.453 0 0 0-.036.04l.028.013.008-.053Zm5.786-2.42a7.553 7.553 0 0 0-5.786 2.42l.204-1.368a.257.257 0 0 0-.07-.241.268.268 0 0 0-.226-.114h-4.24a.368.368 0 0 0-.353.313l-2.826 20.22a.314.314 0 0 0 0 .257.31.31 0 0 0 .24.1h4.48a.354.354 0 0 0 .339-.3l1.61-11.169c.425-2.714 1.57-4.845 4.664-4.86 3.095-.014 3.363 2.43 2.996 5.003l-1.569 10.899a.285.285 0 0 0 .07.256c.056.068.14.105.227.1h4.48a.34.34 0 0 0 .339-.3l1.752-12.206c.735-4.917-.806-9.01-6.33-9.01Zm21.04 0a7.554 7.554 0 0 0-5.821 2.46l-.014.013.212-1.42a.3.3 0 0 0-.071-.242.268.268 0 0 0-.226-.114h-4.24a.368.368 0 0 0-.339.313l-2.826 20.22a.314.314 0 0 0 0 .257.31.31 0 0 0 .24.1h4.522a.354.354 0 0 0 .34-.3l1.596-11.169c.438-2.714 1.583-4.845 4.678-4.86 3.094-.014 3.363 2.43 2.996 5.003l-1.583 10.899a.285.285 0 0 0 .07.256c.055.068.14.105.227.1h4.48a.354.354 0 0 0 .338-.3l1.753-12.206c.734-4.917-.806-9.01-6.331-9.01Zm7.462 1.052 4.24 19.34-4.14 7.73a.314.314 0 0 0 0 .313c.045.1.145.161.254.157h4.79a.339.339 0 0 0 .311-.2l13.82-27.297a.312.312 0 0 0 0-.313.281.281 0 0 0-.254-.156h-4.875a.339.339 0 0 0-.311.213l-6.02 12.548-2.473-12.52a.297.297 0 0 0-.297-.241h-4.776a.339.339 0 0 0-.269.142.3.3 0 0 0 0 .284Zm16.265 19.028a1.56 1.56 0 0 1 1.413-1.421h-.014a1.1 1.1 0 0 1 .894.437c.212.28.279.646.18.984a1.587 1.587 0 0 1-1.413 1.42c-.721 0-1.173-.582-1.06-1.42Zm7.957-7.432a4.417 4.417 0 0 1 3.858-2.103c2.289 0 3.462 1.591 3.095 4.135l-.961 6.679h-2.431l.848-5.926c.212-1.492-.452-2.416-1.865-2.416a3.233 3.233 0 0 0-3.039 3.084l-.763 5.258h-2.416l1.54-10.7h2.417l-.283 1.989Zm8.21 3.368c.267-3.057 2.785-5.418 5.836-5.471l.028.042c3.491 0 4.649 2.459 3.844 6.352h-7.334a2.38 2.38 0 0 0 .714 1.763 2.354 2.354 0 0 0 1.773.667 4.127 4.127 0 0 0 2.826-1.193l1.088 1.42a6.13 6.13 0 0 1-4.437 1.834c-3.095 0-4.79-2.203-4.338-5.414Zm5.567-3.453a3.213 3.213 0 0 0-3.024 2.586l5.243.028a2.1 2.1 0 0 0-.427-1.892 2.073 2.073 0 0 0-1.792-.722Zm9.454 6.664a3.51 3.51 0 0 0 1.413-.44l.367 1.904a5.148 5.148 0 0 1-2.6.781c-1.625 0-2.784-1.009-2.459-3.211l.749-5.286h-1.413l.254-1.89h1.414l.424-2.956h2.388l-.424 2.956h2.826l-.268 1.89h-2.827l-.692 4.831c-.141 1.08.198 1.421.848 1.421Z" clip-rule="evenodd"/></g><defs><clipPath id="a"><path fill="#fff" d="M0 0h149v45H0z"/></clipPath></defs></svg>
