<svg xmlns="http://www.w3.org/2000/svg" width="75" height="75" viewBox="0 0 75 75"><defs><linearGradient id="a" x1="-1.725%" x2="101.725%" y1="49.94%" y2="49.94%"><stop offset="0%" stop-color="#3377DA"/><stop offset="100%" stop-color="#6AE6A7"/></linearGradient></defs><path fill="#515982" d="M56.426 22.4045c1.6232 0 2.9315 1.3081 3.0228 2.9365l.0051.1822v26.6582c0 1.6507-1.2503 3.0177-2.8489 3.1133l-.179.0053H17.6838c-1.19 0-2.164-.9244-2.243-2.0943l-.0052-.154V25.5232c0-1.6508 1.2502-3.0178 2.8489-3.1133l.179-.0054H56.426zm0 2H18.4635c-.5187 0-.9646.4257-1.0218.9947l-.0061.124v27.5285c0 .1176.0816.216.1913.2417l.0569.0066H56.426c.5187 0 .9646-.4257 1.0218-.9946l.0061-.124V25.5232c0-.588-.4113-1.0529-.918-1.1122l-.1099-.0065z"/><path fill="url(#a)" d="M22.7256 28.3394l.1153.0876L37.5215 41.21a.1184.1184 0 00.1188.0218l.0368-.0218 14.5294-12.6933c.443-.387 1.1157-.3416 1.5026.1013.3548.406.3462 1.0052.0011 1.4003l-.1024.1024-10.0622 8.7895 10.0609 8.761c.4436.3863.49 1.059.1038 1.5026-.3219.3696-.8427.4635-1.264.261l-.1231-.0697-.1154-.0875-10.2822-8.9524-2.8472 2.4888c-.7964.6957-1.9611.7376-2.8019.125l-.1536-.1226-2.9993-2.6112-10.2813 8.9827c-.443.387-1.1158.3416-1.5027-.1014-.3547-.406-.3462-1.0051-.0011-1.4002l.1024-.1024 10.0607-8.7907-10.0593-8.76c-.4436-.3862-.4901-1.0588-.1039-1.5024.354-.4066.9488-.4796 1.3872-.1914z"/></svg>
