<svg xmlns="http://www.w3.org/2000/svg" fill="none" viewBox="0 0 137 45"><g fill="#23252F" clip-path="url(#a)"><path d="M19.5 0 0 11.25v22.5L19.5 45 39 33.75v-22.5L19.5 0Zm15.563 31.5-15.563 9-15.563-9v-18l15.563-9 15.563 9v18Z"/><path d="M31.125 24.188v5.062L19.5 35.906 7.875 29.25v-5.062L19.5 30.844l11.625-6.656Z"/><path d="M31.125 15.75v5.063L19.5 27.563l-11.625-6.75V15.75L19.5 22.5l11.625-6.75Z"/><path d="M11.437 13.781 19.5 18.47l8.062-4.688-8.063-4.687-8.062 4.687ZM50.156 27.844v-8.625a.64.64 0 0 1 .657-.657h5.437c3.469 0 5.25 2.157 5.25 4.97 0 2.812-1.875 4.968-5.25 4.968h-5.344c-.375 0-.656-.188-.656-.656h-.094Zm2.25-1.313h3.75c1.969 0 2.907-1.406 2.907-3 0-1.5-.938-2.906-2.907-2.906h-3.75v5.906Zm17.344-7.5 4.5 8.625v.375c0 .281-.188.469-.563.469h-1.03c-.376 0-.657-.094-.75-.375l-.75-1.5h-5.532l-.75 1.5c-.094.281-.375.375-.75.375h-.938c-.468 0-.656-.188-.656-.469v-.375l4.5-8.625c.188-.281.375-.469.75-.469H69c.375 0 .656.188.75.47Zm.375 5.625-1.688-3.75-1.874 3.75h3.562Zm10.594 3.188c0 .468-.188.656-.656.656h-.938c-.375 0-.656-.188-.656-.656v-7.22H74.53a.64.64 0 0 1-.656-.655v-.75a.64.64 0 0 1 .656-.657h10.125a.64.64 0 0 1 .656.657v.75a.64.64 0 0 1-.656.656h-4.031v7.219h.094Zm14.625 0v-3.282H89.53v3.282c0 .468-.187.656-.656.656h-.938c-.374 0-.656-.188-.656-.656v-8.625a.64.64 0 0 1 .656-.657h.938c.469 0 .656.282.656.657v3.28h5.813v-3.28c0-.375.187-.657.656-.657h.938a.64.64 0 0 1 .656.657v8.625c0 .468-.281.656-.656.656H96c-.469 0-.75-.188-.75-.656h.094Zm16.5-4.313c0 2.813-2.438 5.156-5.907 5.156-3.375 0-5.812-2.25-5.812-5.156 0-2.812 2.437-5.156 5.812-5.156 3.469 0 5.907 2.344 5.907 5.156Zm-9.375 0c0 1.781 1.5 3.094 3.468 3.094 2.063 0 3.563-1.313 3.563-3.094 0-1.687-1.5-3.094-3.563-3.094-1.968 0-3.468 1.407-3.468 3.094Zm16.593 3.188c1.313 0 2.719-.375 2.719-1.22 0-.75-.937-.937-2.906-1.124-3.188-.188-4.969-.938-4.969-2.813 0-1.875 1.875-3.187 4.875-3.187a7.502 7.502 0 0 1 4.313 1.219c.281.187.468.375.468.75l-.281.562-.281.375c-.188.188-.281.281-.469.281a.943.943 0 0 1-.469-.187 6.03 6.03 0 0 0-3.281-.938c-1.312 0-2.625.375-2.625 1.032 0 .656 1.219.843 2.813.937 3 .188 5.062.75 5.062 2.906 0 2.157-2.062 3.375-5.062 3.375-2.063 0-3.844-.562-4.969-1.406-.281-.281-.375-.375-.375-.656s0-.469.187-.656l.375-.47.469-.187c.188 0 .375 0 .469.188 1.219.844 2.437 1.219 3.844 1.219h.093Zm12.751 1.125c0 .468-.282.656-.657.656h-.937c-.375 0-.657-.188-.657-.656v-7.22h-3.937a.64.64 0 0 1-.656-.655v-.75a.64.64 0 0 1 .656-.657h10.125a.64.64 0 0 1 .656.657v.75a.64.64 0 0 1-.656.656h-3.937v7.219Z"/></g><defs><clipPath id="a"><path fill="#fff" d="M0 0h137v45H0z"/></clipPath></defs></svg>
