<svg xmlns="http://www.w3.org/2000/svg" fill="none" viewBox="0 0 181 45"><path fill="#5865F2" fill-rule="evenodd" d="M38.27 7.931A36.777 36.777 0 0 0 28.95 5c-.402.726-.871 1.704-1.195 2.48a34.197 34.197 0 0 0-10.33 0A26.557 26.557 0 0 0 16.219 5 36.649 36.649 0 0 0 6.89 7.938C.99 16.86-.608 25.558.192 34.134c3.912 2.924 7.704 4.7 11.431 5.862a28.45 28.45 0 0 0 2.448-4.035 24.066 24.066 0 0 1-3.855-1.878c.323-.24.64-.49.945-.748 7.434 3.48 15.51 3.48 22.855 0 .31.258.626.508.946.748a23.992 23.992 0 0 1-3.863 1.882A28.327 28.327 0 0 0 33.547 40c3.731-1.162 7.526-2.938 11.439-5.866.938-9.941-1.603-18.56-6.716-26.203Zm-23.186 20.93c-2.232 0-4.061-2.086-4.061-4.625s1.79-4.627 4.061-4.627c2.27 0 4.1 2.085 4.061 4.627.004 2.54-1.79 4.624-4.061 4.624Zm10.948-4.625c0 2.54 1.83 4.624 4.061 4.624 2.27 0 4.062-2.085 4.062-4.624.039-2.542-1.791-4.627-4.062-4.627-2.27 0-4.061 2.088-4.061 4.627ZM70.41 13.929h-9.701v17.794h9.004c2.54 0 4.666-.4 6.382-1.195 1.716-.796 2.992-1.874 3.83-3.24.84-1.362 1.259-2.884 1.259-4.562 0-1.714-.406-3.236-1.209-4.566-.803-1.33-2.014-2.368-3.631-3.113-1.62-.744-3.596-1.118-5.934-1.118Zm2.835 12.066c-.845.803-2.057 1.206-3.631 1.206H66.93v-8.747h3.035c1.524 0 2.665.39 3.418 1.16.753.77 1.13 1.797 1.13 3.087 0 1.39-.423 2.488-1.269 3.294Z" clip-rule="evenodd"/><path fill="#5865F2" d="M95.706 31.701c-1.343-.356-2.555-.872-3.631-1.55V25.93c.813.643 1.904 1.173 3.272 1.59 1.368.415 2.69.622 3.97.622.596 0 1.048-.08 1.353-.24.306-.16.459-.352.459-.574a.87.87 0 0 0-.249-.636c-.167-.17-.49-.312-.97-.432l-2.985-.686c-1.71-.407-2.92-.97-3.642-1.693-.722-.72-1.08-1.663-1.08-2.833 0-.984.312-1.838.945-2.568.629-.73 1.524-1.293 2.686-1.689 1.162-.4 2.52-.6 4.08-.6 1.392 0 2.668.153 3.83.458 1.162.305 2.121.694 2.885 1.17v3.992c-.781-.476-1.677-.85-2.7-1.134a11.843 11.843 0 0 0-3.149-.417c-1.56 0-2.338.272-2.338.813 0 .255.121.444.363.57.241.128.685.258 1.329.396l2.487.458c1.624.287 2.836.792 3.632 1.511.796.72 1.194 1.784 1.194 3.193 0 1.544-.658 2.768-1.976 3.676-1.319.908-3.188 1.362-5.611 1.362a16.31 16.31 0 0 1-4.154-.538ZM113.317 31.167c-1.425-.712-2.501-1.678-3.219-2.898-.718-1.22-1.08-2.594-1.08-4.12 0-1.525.373-2.89 1.119-4.093.746-1.202 1.841-2.146 3.283-2.833 1.443-.686 3.166-1.028 5.174-1.028 2.487 0 4.552.534 6.193 1.602v4.653a7.683 7.683 0 0 0-2.025-.992 7.855 7.855 0 0 0-2.477-.381c-1.542 0-2.747.287-3.617.864-.871.578-1.308 1.33-1.308 2.263 0 .915.423 1.664 1.269 2.252.846.585 2.071.88 3.681.88.828 0 1.645-.124 2.452-.368.803-.247 1.496-.548 2.075-.904v4.5c-1.823 1.119-3.937 1.678-6.343 1.678-2.025-.007-3.752-.363-5.177-1.075Z"/><path fill="#5865F2" fill-rule="evenodd" d="M127.708 28.243c.754 1.24 1.848 2.212 3.284 2.924 1.432.712 3.127 1.065 5.084 1.065 1.958 0 3.653-.356 5.089-1.068 1.435-.712 2.526-1.686 3.273-2.924.746-1.239 1.119-2.619 1.119-4.145 0-1.543-.373-2.905-1.119-4.093-.747-1.188-1.834-2.118-3.259-2.797-1.425-.68-3.127-1.017-5.099-1.017-1.972 0-3.674.338-5.099 1.017-1.429.68-2.516 1.617-3.273 2.812-.757 1.194-1.133 2.556-1.133 4.082 0 1.526.38 2.906 1.133 4.144Zm11.751-4.039c0 1.017-.305 1.835-.909 2.452-.605.618-1.429.926-2.474.93-1.062 0-1.897-.312-2.501-.93-.604-.617-.906-1.435-.906-2.452s.302-1.823.906-2.426c.608-.603 1.439-.904 2.501-.904 1.045 0 1.869.301 2.474.904.607.6.909 1.41.909 2.426Z" clip-rule="evenodd"/><path fill="#5865F2" d="M160.503 17.132v5.492c-.633-.425-1.45-.636-2.463-.636-1.326 0-2.348.411-3.06 1.232-.714.82-1.069 2.1-1.069 3.828v4.679h-6.094V16.853h5.97v4.729c.33-1.73.867-3.004 1.606-3.829.735-.82 1.687-1.23 2.847-1.23.876 0 1.63.203 2.263.61Z"/><path fill="#5865F2" fill-rule="evenodd" d="M180.749 31.727V13.42h-6.095v6.636c-.994-2.575-2.941-3.864-5.845-3.864-1.41 0-2.668.348-3.769 1.042-1.101.694-1.959 1.66-2.563 2.899-.606 1.238-.902 2.637-.885 4.195 0 1.51.281 2.862.836 4.057.558 1.195 1.35 2.136 2.377 2.822 1.026.687 2.228 1.028 3.606 1.028 1.543 0 2.844-.327 3.895-.977 1.052-.654 1.834-1.609 2.348-2.862v3.33h6.095Zm-6.073-7.574c0 .981-.309 1.784-.93 2.401-.623.618-1.447.927-2.474.93-1.013 0-1.822-.305-2.438-.915-.614-.61-.92-1.398-.92-2.365 0-.966.306-1.747.92-2.35.616-.603 1.437-.904 2.463-.904 1.042 0 1.868.298 2.474.89.603.592.905 1.366.905 2.313Z" clip-rule="evenodd"/><path fill="#5865F2" d="M86.318 18.436c1.678 0 3.038-1.249 3.038-2.79 0-1.54-1.36-2.789-3.038-2.789-1.677 0-3.038 1.249-3.038 2.79 0 1.54 1.36 2.79 3.038 2.79ZM83.277 20.358c1.862.82 4.172.857 6.077 0v11.448h-6.077V20.358Z"/></svg>
