<svg xmlns="http://www.w3.org/2000/svg" width="58" height="13" viewBox="0 0 58 13"><path d="M12.2803 1.9056A11.801 11.801 0 009.2894.965c-.1288.2331-.2793.5466-.383.796-1.1152-.1678-2.2201-.1678-3.3147 0-.1038-.2494-.2577-.5629-.3877-.796a11.7601 11.7601 0 00-2.9931.943C.318 4.7704-.195 7.562.0616 10.3136c1.2554.9383 2.472 1.5082 3.668 1.8812a9.1292 9.1292 0 00.7857-1.295 7.7205 7.7205 0 01-1.2372-.6025 6.1406 6.1406 0 00.3033-.24c2.3854 1.1165 4.9771 1.1165 7.334 0 .0992.0827.2007.1631.3033.24a7.701 7.701 0 01-1.2394.6038c.2269.4545.4891.8881.7856 1.2948 1.1972-.373 2.415-.9428 3.6704-1.8823.301-3.19-.5143-5.9558-2.155-8.4081zm-7.44 6.7158c-.7161 0-1.3033-.669-1.3033-1.4837s.5747-1.485 1.3033-1.485c.7286 0 1.3158.669 1.3032 1.485.0012.8146-.5746 1.4837-1.3032 1.4837zm4.8163 0c-.716 0-1.3033-.669-1.3033-1.4837s.5747-1.485 1.3033-1.485c.7286 0 1.3158.669 1.3033 1.485 0 .8146-.5747 1.4837-1.3033 1.4837zm9.824-4.7913h3.113c.7502 0 1.3842.12 1.9041.359.5188.239.9076.5723 1.1653.9989.2577.4265.3877.915.3877 1.465 0 .5385-.1346 1.0269-.4036 1.464-.2691.4382-.6785.7843-1.2292 1.0396-.5507.2552-1.2326.3834-2.0479.3834h-2.8893V3.8301zm2.8575 4.2588c.5051 0 .894-.1293 1.1653-.387.2714-.2586.4071-.6106.4071-1.057 0-.4138-.1209-.7436-.3626-.9907-.2417-.2471-.6078-.3718-1.097-.3718h-.9737v2.8065h.861zm8.3729 1.4442c-.431-.1143-.8199-.2798-1.1654-.4977V7.681c.2612.2063.6112.3765 1.0502.5106.439.1328.8631.1993 1.2736.1993.1916 0 .3364-.0257.4345-.077.098-.0512.147-.113.147-.1841 0-.0816-.0262-.1492-.0798-.204-.0536-.0548-.1573-.1002-.3112-.1387l-.9579-.2203c-.5484-.1305-.9372-.3112-1.1687-.5431-.2315-.2308-.3466-.5338-.3466-.9091 0-.3159.1003-.5898.3033-.824.2018-.2343.4891-.415.862-.542.3729-.1282.8084-.1923 1.309-.1923.447 0 .8563.049 1.2291.1468.3729.098.6808.2226.9259.3753v1.281c-.2508-.1527-.5382-.2728-.8666-.3637a3.7995 3.7995 0 00-1.0102-.134c-.5005 0-.7503.0874-.7503.261 0 .0816.0388.1422.1163.183.0776.0408.22.0828.4265.127l.7981.147c.5211.092.91.254 1.1654.4848.2554.2307.383.5723.383 1.0245 0 .4953-.2109.8881-.634 1.1795-.423.2914-1.0227.437-1.8003.437-.4572-.0011-.902-.0582-1.333-.1724zm5.651-.1714c-.4572-.2285-.8027-.5385-1.033-.9301-.2304-.3916-.3467-.8322-.3467-1.3217 0-.4896.1197-.9278.3592-1.3135.2394-.3859.5906-.6889 1.0535-.9092.463-.2203 1.016-.3298 1.6602-.3298.7982 0 1.4607.1713 1.9875.514v1.493c-.186-.1305-.4025-.2366-.65-.3182-.2474-.0816-.512-.1224-.7947-.1224-.4949 0-.8814.0921-1.1608.2774-.2793.1854-.4196.4266-.4196.7262 0 .2937.1357.5338.4071.7226.2714.1877.6647.282 1.1813.282.2656 0 .5279-.0395.7867-.1176.2577-.0793.48-.176.666-.2903v1.4441c-.585.359-1.2634.5385-2.0354.5385-.65-.0024-1.2041-.1165-1.6613-.345zm5.6715 0c-.4607-.2284-.8119-.5407-1.0536-.9382-.2417-.3974-.3637-.8403-.3637-1.3299 0-.4895.1209-.9266.3637-1.31.243-.3835.5918-.6842 1.0502-.9021.4572-.218 1.0034-.3264 1.6362-.3264s1.179.1084 1.6362.3264c.4573.218.8062.5163 1.0456.8974.2395.3812.3592.8182.3592 1.3136 0 .4895-.1197.9324-.3592 1.3298-.2394.3975-.5895.7099-1.0501.9383-.4607.2284-1.0046.3427-1.6328.3427-.6283 0-1.1722-.113-1.6317-.3415zm2.4253-1.4475c.1938-.1982.2919-.4604.2919-.7868 0-.3263-.097-.5862-.292-.7785-.1938-.1935-.4583-.2903-.7935-.2903-.341 0-.6078.0968-.8027.2903-.1939.1934-.2908.4522-.2908.7785 0 .3264.097.5886.2908.7868.1938.1981.4617.2983.8027.2983.3352-.0011.5997-.1002.7936-.2983zm7.0445-3.056v1.7622c-.2031-.1364-.4652-.204-.7904-.204-.4254 0-.7534.1317-.9818.3952-.2293.2634-.343.6736-.343 1.2284v1.5012h-1.9556V4.7684h1.9158v1.5175c.1058-.5548.278-.964.5153-1.2285.2358-.2634.5414-.3951.9134-.3951.2813 0 .5232.0653.7263.1958zM58 3.667v5.8743h-1.9556V8.4724c-.1652.4022-.416.7087-.7534.9185-.3374.2086-.7548.3135-1.25.3135-.4422 0-.8278-.1096-1.1572-.3298-.3295-.2203-.5836-.5222-.7628-.9056-.1778-.3835-.2681-.817-.2681-1.302-.0056-.5.0893-.9487.284-1.3461.1938-.3975.469-.7075.8222-.9301.3533-.2226.7572-.3345 1.2097-.3345.9317 0 1.5564.4137 1.8756 1.2401V3.667H58zm-2.2471 4.2145c.1993-.1981.2985-.4557.2985-.7704 0-.3042-.0969-.5524-.2906-.7424-.1942-.19-.4595-.2856-.7937-.2856-.3294 0-.5929.0968-.7903.2902-.197.1935-.2953.4441-.2953.7541s.0982.563.2953.7588c.1974.1958.4572.2937.7824.2937.3294-.0012.5938-.1002.7937-.2984zm-28.0545-2.605c.5384 0 .9749-.4008.9749-.8951 0-.4944-.4365-.8952-.975-.8952-.5383 0-.9748.4008-.9748.8952 0 .4943.4365.8951.9749.8951zm-.9758.6166c.5975.2634 1.3386.275 1.9498 0v3.6738h-1.9498V5.893z"/></svg>
