<svg xmlns="http://www.w3.org/2000/svg" viewBox="0 0 54 9" width="54" height="9"><path d="M28.95 9.08c-2.48 0-4.49-2.01-4.49-4.5 0-2.48 2.01-4.49 4.49-4.49 2.49 0 4.5 2.01 4.5 4.49 0 2.49-2.01 4.5-4.5 4.5Z" fill="#ef9122"/><path d="M24.46 4.58c0-2.5 1.99-4.49 4.49-4.49 2.51 0 4.5 1.99 4.5 4.49 0 2.51-1.99 4.5-4.5 4.5" fill="#f26e21"/><path d="M25.84 1.38c1.73-1.73 4.59-1.73 6.31 0 1.73 1.73 1.73 4.59 0 6.32" fill="#f44500"/><path fill="#595a5b" d="M2.92.35c2.77 0 4.59 1.73 4.59 4.23 0 1.3-.61 2.51-1.56 3.29-.78.61-1.73.95-3.03.95H.5V.35h2.42Zm1.99 6.4c.61-.52.95-1.39.87-2.17 0-.77-.35-1.55-.96-2.07-.51-.52-1.21-.69-2.24-.69h-.44v5.62h.52c1.04 0 1.73-.26 2.25-.69ZM8.28.35h1.65v8.47H8.28V.35Zm5.8 3.28c1.9.69 2.42 1.3 2.42 2.77 0 1.64-1.21 2.77-2.94 2.77-1.21 0-2.16-.52-2.94-1.65l1.04-1.03c.34.69 1.03 1.12 1.81 1.12s1.3-.52 1.3-1.21c0-.35-.17-.69-.52-.86-.17-.18-.43-.26-1.12-.52-1.56-.61-2.08-1.13-2.08-2.34 0-1.38 1.21-2.42 2.68-2.42.95 0 1.82.35 2.51.95l-.86 1.13c-.44-.52-.87-.7-1.39-.7-.69 0-1.21.44-1.21.95 0 .44.26.7 1.3 1.04Z"/><path fill="#ffffff" d="M17.02 4.58c0 2.51 1.99 4.41 4.5 4.41.69 0 1.29-.17 2.07-.51V6.49c-.69.69-1.29.95-1.99.95-1.64 0-2.85-1.21-2.85-2.94 0-1.65 1.21-2.94 2.77-2.94.78 0 1.38.26 2.07.95V.52C22.9.17 22.3 0 21.52 0c-2.43.17-4.5 2.16-4.5 4.58Zm20.15 1.47L34.92.35h-1.81l3.54 8.73h.95L41.32.35h-1.81l-2.34 5.7Zm4.84 2.77h4.76V7.44h-3.03V5.1h2.94V3.63h-2.94V1.82h3.03V.35h-4.76v8.47Z"/><path fill="#595a5b" d="m51.44 5.28 2.68 3.54h-1.99L49.8 5.45h-.26v3.37H47.9V.35h2.5c1.91 0 3.03.95 3.03 2.5 0 1.3-.69 2.17-1.99 2.43Zm-1.38-1.04c1.04 0 1.64-.43 1.64-1.3 0-.86-.6-1.3-1.64-1.3h-.52v2.6h.52Z"/><path fill="#ffffff" d="M2.92.35c2.77 0 4.59 1.73 4.59 4.23 0 1.3-.61 2.51-1.56 3.29-.78.61-1.73.95-3.03.95H.5V.35h2.42Zm1.99 6.4c.61-.52.95-1.39.87-2.17 0-.77-.35-1.55-.96-2.07-.51-.52-1.21-.69-2.24-.69h-.44v5.62h.52c1.04 0 1.73-.26 2.25-.69ZM8.28.35h1.65v8.47H8.28V.35Zm5.8 3.28c1.9.69 2.42 1.3 2.42 2.77 0 1.64-1.21 2.77-2.94 2.77-1.21 0-2.16-.52-2.94-1.65l1.04-1.03c.34.69 1.03 1.12 1.81 1.12s1.3-.52 1.3-1.21c0-.35-.17-.69-.52-.86-.17-.18-.43-.26-1.12-.52-1.56-.61-2.08-1.13-2.08-2.34 0-1.38 1.21-2.42 2.68-2.42.95 0 1.82.35 2.51.95l-.86 1.13c-.44-.52-.87-.7-1.39-.7-.69 0-1.21.44-1.21.95 0 .44.26.7 1.3 1.04Zm7.52 5.36c-2.59 0-4.58-1.9-4.49-4.49 0-1.3.6-2.51 1.47-3.29l1.12 1.13c-.52.6-.86 1.29-.86 2.16 0 1.73 1.21 2.94 2.85 2.94.69 0 1.3-.26 1.99-.95v1.99c-.78.34-1.38.51-2.08.51Zm29.84-3.71 2.68 3.54h-1.99L49.8 5.45h-.26v3.37H47.9V.35h2.5c1.91 0 3.03.95 3.03 2.5 0 1.3-.69 2.17-1.99 2.43Zm-1.38-1.04c1.04 0 1.64-.43 1.64-1.3 0-.86-.6-1.3-1.64-1.3h-.52v2.6h.52Zm-3.38 4.58h-4.67V4.15l1.73 1.73v1.56h1.56l1.38 1.38Zm-6.31-6.31L37.6 9.08h-.95L33.11.35h1.81l2.25 5.7 1.9-4.84 1.3 1.3Z"/></svg>
