<svg width="109" height="25" xmlns="http://www.w3.org/2000/svg"><g transform="translate(1.608 1.093)" fill="none" fill-rule="evenodd"><path d="M31.458 20.496c1.464 0 2.452-.794 2.452-1.985 0-1.367-1.023-1.676-2.205-1.967-.988-.247-1.367-.406-1.367-.89 0-.407.388-.689.961-.689.715 0 1.094.38 1.094 1.032h1.314c0-1.35-.811-2.064-2.381-2.064-1.377 0-2.32.759-2.32 1.861 0 1.377 1.076 1.659 2.258 1.959.89.23 1.297.335 1.297.89 0 .495-.424.803-1.085.803-.803 0-1.218-.396-1.218-1.155h-1.34c0 1.429.978 2.205 2.54 2.205zm5.878 0c1.465 0 2.453-.794 2.453-1.985 0-1.367-1.024-1.676-2.206-1.967-.988-.247-1.367-.406-1.367-.89 0-.407.388-.689.962-.689.714 0 1.093.38 1.093 1.032h1.315c0-1.35-.812-2.064-2.382-2.064-1.376 0-2.32.759-2.32 1.861 0 1.377 1.076 1.659 2.258 1.959.891.23 1.297.335 1.297.89 0 .495-.423.803-1.085.803-.803 0-1.217-.396-1.217-1.155h-1.341c0 1.429.979 2.205 2.54 2.205zm8.075-.14v-1.112h-2.964v-5.17H41.15v6.281h4.261zm7.902 0v-1.112H50.19v-1.535h2.84v-1.103h-2.84v-1.42h3.044v-1.112h-4.34v6.281h4.42zm2.73 0v-2.418c0-.909-.027-1.817-.071-2.726h.017c.353.873.75 1.756 1.147 2.594l1.217 2.55h1.844v-6.282h-1.244v2.417c0 .909.027 1.818.07 2.726h-.017a49.095 49.095 0 00-1.147-2.593l-1.217-2.55h-1.844v6.281h1.244zm8.374.14c1.535 0 2.532-.855 2.655-2.346H65.74c-.097.767-.582 1.2-1.323 1.2-.935 0-1.508-.803-1.508-2.135 0-1.324.582-2.135 1.535-2.135.732 0 1.217.44 1.296 1.173h1.306c-.062-1.367-1.05-2.32-2.602-2.32-1.782 0-2.876 1.253-2.876 3.282 0 2.037 1.085 3.281 2.85 3.281zm5.35-.14v-2.4h.714c.617 0 .873.238 1.102.908l.503 1.491h1.412l-.627-1.738c-.29-.794-.502-1.058-.944-1.217v-.018c.706-.194 1.147-.767 1.147-1.535 0-1.12-.714-1.773-2.293-1.773h-2.312v6.281h1.297zm.917-3.432h-.918v-1.8h.847c.741 0 1.156.265 1.156.873 0 .574-.3.927-1.085.927zm6.293 3.431v-2.443l2.143-3.838h-1.446l-.6 1.182c-.265.52-.512 1.059-.732 1.597h-.018a21.686 21.686 0 00-.732-1.597l-.6-1.182h-1.456l2.144 3.838v2.443h1.297zm4.246 0v-2.223H82.3c1.526 0 2.303-.812 2.303-2.029 0-1.217-.777-2.029-2.303-2.029h-2.373v6.281h1.297zm.9-3.3h-.9V15.15h.9c.82 0 1.156.362 1.156.953s-.336.953-1.156.953zm6.372 3.3v-5.17h1.976v-1.11h-5.249v1.11H87.2v5.17h1.296zm4.3 0v-6.28h-1.297v6.28h1.297zm4.343.141c1.844 0 2.973-1.244 2.973-3.281 0-2.038-1.13-3.282-2.973-3.282-1.844 0-2.973 1.244-2.973 3.282 0 2.037 1.13 3.281 2.973 3.281zm0-1.147c-1.014 0-1.632-.811-1.632-2.134 0-1.324.618-2.135 1.632-2.135 1.015 0 1.632.811 1.632 2.135 0 1.323-.617 2.134-1.632 2.134zm5.587 1.006v-2.417c0-.909-.026-1.817-.07-2.726h.017c.353.873.75 1.756 1.147 2.594l1.218 2.55h1.843v-6.282h-1.243v2.417c0 .909.026 1.818.07 2.726h-.018a49.095 49.095 0 00-1.146-2.593l-1.218-2.55h-1.843v6.281h1.243zM31.581 9.285c1.446 0 2.358-.767 2.358-1.97 0-1.368-1-1.698-2.31-2.018-1.154-.282-1.746-.524-1.746-1.35 0-.776.553-1.251 1.524-1.251 1.125 0 1.766.524 1.766 1.698h.64c0-1.494-.805-2.27-2.406-2.27-1.359 0-2.164.756-2.164 1.833 0 1.32.902 1.65 2.232 1.98 1.193.3 1.824.534 1.824 1.388 0 .873-.592 1.378-1.718 1.378-1.116 0-1.843-.554-1.843-1.844h-.631c0 1.601.912 2.426 2.474 2.426zm5.933 0c1.242 0 1.931-.747 2.086-1.592h-.62c-.146.631-.66 1.078-1.466 1.078-.912 0-1.61-.65-1.64-1.96h3.765c0-.36-.02-.69-.078-.952-.213-1.086-.98-1.756-2.086-1.756-1.388 0-2.212 1.048-2.212 2.504 0 1.63.844 2.678 2.25 2.678zm1.543-2.97h-3.173c.058-1.057.689-1.698 1.591-1.698.883 0 1.514.602 1.582 1.698zm4.118 2.97c1.145 0 1.911-.815 1.999-1.883h-.631c-.068.738-.611 1.359-1.368 1.359-.99 0-1.582-.776-1.582-2.067 0-1.281.592-2.067 1.582-2.067.757 0 1.31.543 1.368 1.3h.63c-.087-1.077-.882-1.824-1.998-1.824-1.378 0-2.232.98-2.232 2.59 0 1.612.854 2.592 2.232 2.592zm5.263-.02c.679 0 1.242-.31 1.533-.776h.02v.67h.591v-4.93h-.601V7.15c0 1.038-.67 1.591-1.436 1.591-.787 0-1.262-.378-1.262-1.542v-2.97h-.602v2.999c0 1.358.631 2.037 1.757 2.037zm4.71-.106v-2.6c0-1.146.553-1.786 1.533-1.786.107 0 .233.01.31.019v-.573a1.815 1.815 0 00-.33-.029c-.65 0-1.174.282-1.504.815h-.02V4.23h-.591v4.93h.602zm4.758.126c1.242 0 1.931-.747 2.086-1.592h-.62c-.146.631-.66 1.078-1.466 1.078-.912 0-1.61-.65-1.64-1.96h3.765c0-.36-.02-.69-.077-.952-.214-1.086-.98-1.756-2.087-1.756-1.387 0-2.212 1.048-2.212 2.504 0 1.63.844 2.678 2.251 2.678zm1.543-2.97h-3.173c.058-1.057.689-1.698 1.591-1.698.883 0 1.514.602 1.582 1.698z" fill="#FFF" fill-rule="nonzero"/><rect stroke="#2DC27E" x=".411" y=".225" width="22.173" height="22.173" rx="11.087"/><g transform="translate(6.188 4.612)"><rect fill="#2DC27E" x=".345" y="4.929" width="9.6" height="7.283" rx=".918"/><path d="M3.012 5.69V3.556a2.133 2.133 0 014.267 0V5.69a.533.533 0 001.067 0V3.556a3.2 3.2 0 00-6.4 0V5.69a.533.533 0 101.066 0z" fill="#2DC27E" fill-rule="nonzero"/><path d="M4.523 9.518l-.967-.967a.243.243 0 00-.343.343l1.139 1.14a.243.243 0 00.343 0l2.506-2.506a.243.243 0 00-.344-.344L4.523 9.518z" stroke="#FFF" stroke-width=".3" fill="#FFF" fill-rule="nonzero"/></g></g></svg>
