<svg xmlns="http://www.w3.org/2000/svg" width="56" height="16" viewBox="0 0 56 16"><path d="M19.6834 3.086c-1.4832 0-2.6124.756-3.2152 1.7846-.4737.7942-.6555 1.7033-.6555 2.7272 0 1.2104.354 2.3396 1.0622 3.1673.6554.775 1.6315 1.2822 2.8276 1.2822.8086 0 1.5645-.2344 2.1722-.641.689-.4738 1.196-1.2632 1.3157-2.1053h-1.397c-.1197.4546-.268.689-.5072.9282-.354.3684-.909.555-1.5837.555-.6555 0-1.177-.22-1.5645-.6076-.5215-.5215-.823-1.3636-.823-2.1387h6.0285l.0191-.8612c.0192-1.1435-.3875-2.2391-1.0765-2.9998-.6315-.6699-1.507-1.091-2.6027-1.091zm-2.3396 3.7223c.0334-1.2487.7894-2.5118 2.3396-2.5118.756 0 1.33.3014 1.6841.775.335.4546.5215 1.0957.5215 1.7368h-4.5452zM28.458 3.1051c-.9617 0-2.0525.4737-2.5453 1.3301l-.268-1.11h-1.0956v11.8273h1.4305V10.856c.4546.775 1.5502 1.2105 2.4784 1.2105.9952 0 1.7846-.335 2.3396-.8612.8612-.8278 1.2966-2.1722 1.2966-3.6362 0-1.4163-.421-2.7129-1.2296-3.5358-.555-.5741-1.3636-.9282-2.4066-.9282zm-.2344 7.7461c-.622 0-1.043-.2536-1.3828-.555-.708-.622-.9425-1.6506-.9425-2.7128s.2344-2.0908.9425-2.7128c.335-.3014.756-.555 1.3828-.555 1.9042 0 2.4066 1.7033 2.4066 3.2678 0 1.5693-.5024 3.2678-2.4066 3.2678zM37.118 3.086c-1.4832 0-2.6123.756-3.2152 1.7846-.4736.7942-.6554 1.7033-.6554 2.7272 0 1.2104.354 2.3396 1.0621 3.1673.6555.775 1.6315 1.2822 2.8277 1.2822.8085 0 1.5645-.2344 2.1721-.641.689-.4738 1.1961-1.2632 1.3157-2.1053h-1.397c-.1196.4546-.268.689-.5072.9282-.354.3684-.909.555-1.5836.555-.6555 0-1.177-.22-1.5646-.6076-.5215-.5215-.8277-1.3636-.8277-2.1387h6.0285l.0191-.8612c.0144-1.1435-.3875-2.2391-1.0765-2.9998-.6316-.6699-1.5071-1.091-2.598-1.091zm-2.3444 3.7223c.0335-1.2487.7895-2.5118 2.3396-2.5118.756 0 1.3301.3014 1.6842.775.3349.4546.5215 1.0957.5215 1.7368h-4.5453zM45.8545 3.086c-1.4832 0-2.6123.756-3.2152 1.7846-.4737.7942-.6555 1.7033-.6555 2.7272 0 1.2104.354 2.3396 1.0622 3.1673.6555.775 1.6315 1.2822 2.8276 1.2822.8086 0 1.5645-.2344 2.1722-.641.689-.4738 1.1961-1.2632 1.3157-2.1053h-1.397c-.1197.4546-.268.689-.5072.9282-.354.3684-.909.555-1.5837.555-.6555 0-1.177-.22-1.5645-.6076-.5215-.5215-.8277-1.3636-.8277-2.1387h6.0284l.0144-.8612c.0191-1.1435-.3876-2.2391-1.0765-2.9998-.622-.6699-1.4976-1.091-2.5932-1.091zm-2.3396 3.7223c.0335-1.2487.7894-2.5118 2.3396-2.5118.756 0 1.33.3014 1.6841.775.335.4546.5215 1.0957.5215 1.7368H43.515zm11.8894-2.4018l-3.2678 1.3923v6.0284h-1.4162v-8.502h1.0956l.268 1.11 2.995-1.0717.3254 1.043zM9.9087 10.2627h1.574v1.5741h-1.574v-1.574zm0-6.947h1.574v1.574h-1.574v-1.574zm3.7223 0h1.574v1.574h-1.574v-1.574zm-7.4399 0h1.5741v1.574h-1.574v-1.574zm5.5787 3.4687h1.5741v1.574H11.77v-1.574zm-3.7223 0h1.574v1.574h-1.574v-1.574zM3.0573 0h1.574v1.574h-1.574V0zM0 .0048h1.4306v11.8224H0V.0048zM3.129 3.306h1.4306v8.5211H3.1291V3.3061z"/></svg>
