<svg xmlns="http://www.w3.org/2000/svg" width="48" height="17" viewBox="0 0 48 17"><path d="M18.005 10.9038a2.6016 2.6016 0 002.6031 2.6016h6.3434v-2.6016h-5.9717v-1.863h5.5795V6.7303h-5.5795V4.9289h5.9717V2.3274H20.605c-1.436 0-2.6 1.164-2.6 2.6v5.9764zm18.9242-.7875c-.0017-1.87-1.5176-3.3852-3.3876-3.386h-2.6885V4.9289h5.5352V2.3274h-5.1556c-1.8537 0-3.3567 1.5022-3.3576 3.356 0 1.8542 1.5033 3.3574 3.3576 3.3574h2.7217v1.863h-5.5352v2.6016h5.1288c1.869-.0035 3.3821-1.52 3.3812-3.3891zm3.666 3.3891h5.6332v-2.6016h-5.2616V2.3274H37.992v8.5764a2.6016 2.6016 0 002.6031 2.6016z"/><circle cx="7.932" cy="7.932" r="6.826" /><path fill="#FFF" d="M8.1906 2.3375l-5.1858 8.2459a5.529 5.529 0 00.6042.8999l7.8743-7.8822a5.57 5.57 0 00-3.2927-1.2636zm4.0913 2.0654l-7.879 7.879a5.623 5.623 0 00.9062.5994l8.2238-5.1762a5.5795 5.5795 0 00-1.251-3.3022zm1.1245 4.716l-6.7641 4.2637a5.6096 5.6096 0 006.764-4.2637z"/></svg>
