<svg xmlns="http://www.w3.org/2000/svg" fill="none" viewBox="0 0 128 45"><path fill="#000" fill-rule="evenodd" d="M10.698 5H7.062v3.636h3.636V5Zm27.341 11.25c1.392-2.376 4-4.122 7.427-4.122 2.53 0 4.553.973 6.012 2.52 1.591 1.757 2.53 4.288 2.486 6.93l-.044 1.989H39.995c0 1.79.696 3.735 1.901 4.94.895.895 2.1 1.403 3.614 1.403 1.558 0 2.84-.431 3.658-1.282.553-.552.895-1.094 1.171-2.144h3.227c-.276 1.945-1.447 3.769-3.039 4.863-1.403.94-3.15 1.48-5.017 1.48-2.763 0-5.017-1.17-6.532-2.961-1.635-1.912-2.453-4.52-2.453-7.316 0-2.365.42-4.465 1.514-6.3Zm7.427-1.326c-3.58 0-5.327 2.918-5.404 5.802H50.56c0-1.48-.431-2.962-1.205-4.011-.818-1.095-2.144-1.79-3.89-1.79Zm20.268-2.752c-2.221 0-4.74 1.095-5.88 3.073l-.618-2.564h-2.53V40h3.303v-9.924c1.05 1.79 3.581 2.796 5.725 2.796 2.299 0 4.122-.774 5.404-1.99 1.99-1.911 2.995-5.017 2.995-8.399 0-3.27-.972-6.266-2.84-8.167-1.282-1.326-3.15-2.144-5.559-2.144ZM62 28.782c.784.697 1.757 1.283 3.194 1.283 4.398 0 5.558-3.924 5.558-7.548 0-3.614-1.16-7.549-5.558-7.549-1.448 0-2.42.586-3.194 1.282-1.636 1.437-2.177 3.813-2.177 6.267 0 2.453.541 4.83 2.177 6.266Zm23.738-16.654c-3.426 0-6.034 1.746-7.426 4.122-1.095 1.835-1.515 3.935-1.515 6.3 0 2.796.818 5.404 2.454 7.316 1.514 1.79 3.769 2.962 6.531 2.962 1.868 0 3.614-.542 5.018-1.481 1.591-1.094 2.763-2.918 3.039-4.863H90.61c-.276 1.05-.619 1.591-1.172 2.144-.817.851-2.1 1.282-3.658 1.282-1.514 0-2.718-.508-3.614-1.404-1.204-1.204-1.911-3.15-1.911-4.94H94.18l.045-1.989c.033-2.641-.895-5.172-2.487-6.93-1.459-1.546-3.481-2.519-6-2.519Zm-.01 2.796c-3.581 0-5.328 2.918-5.405 5.802h10.499c0-1.48-.431-2.962-1.205-4.011-.817-1.095-2.144-1.79-3.89-1.79Zm20.19-2.796c-3.426 0-6.034 1.746-7.426 4.122-1.094 1.835-1.514 3.935-1.514 6.3 0 2.796.817 5.404 2.453 7.316 1.514 1.79 3.769 2.962 6.531 2.962 1.868 0 3.614-.542 5.018-1.481 1.591-1.094 2.763-2.918 3.039-4.863h-3.227c-.276 1.05-.619 1.591-1.171 2.144-.818.851-2.1 1.282-3.659 1.282-1.514 0-2.718-.508-3.613-1.404-1.205-1.204-1.912-3.15-1.912-4.94h13.925l.033-1.989c.044-2.641-.895-5.172-2.487-6.93-1.437-1.546-3.459-2.519-5.99-2.519Zm0 2.796c-3.581 0-5.327 2.918-5.404 5.802h10.499c0-1.48-.431-2.962-1.205-4.011-.818-1.095-2.144-1.79-3.89-1.79Zm22.059.254-7.548 3.216V32.32h-3.271V12.681h2.531l.618 2.564 6.919-2.476.751 2.41ZM0 5.011h3.304v27.308H0V5.011Zm10.532 7.626H7.228v19.682h3.304V12.637Z" clip-rule="evenodd"/><path fill="url(#a)" fill-rule="evenodd" d="M17.937 12.659H14.3v3.636h3.636v-3.636Zm8.587 0h-3.636v3.636h3.636v-3.636Zm0 16.047h-3.636v3.635h3.636v-3.636Zm4.962-16.047h3.636v3.636h-3.636v-3.636Zm-4.3 8.012h3.637v3.636h-3.636v-3.636Zm-4.962 0h-3.636v3.636h3.636v-3.636Z" clip-rule="evenodd"/><defs><linearGradient id="a" x1="14.301" x2="35.122" y1="32.341" y2="32.341" gradientUnits="userSpaceOnUse"><stop stop-color="#02A761"/><stop offset="1" stop-color="#4BF0AA"/></linearGradient></defs></svg>
