<svg width="30" height="30" viewBox="0 0 30 30" xmlns="http://www.w3.org/2000/svg"><g fill="#FF492C" fill-rule="evenodd"><path d="M24.24 26.93a15.15 15.15 0 0 1-9.03 2.96A14.98 14.98 0 0 1 .13 15C.13 6.78 6.89.13 15.2.13c1.05 0 2.07.1 3.06.3L15.21 6.5A8.62 8.62 0 0 0 6.49 15c0 4.69 3.89 8.51 8.72 8.51a8.8 8.8 0 0 0 5.77-2.13l3.26 5.54z"/><path d="M14.63 19.24l3.78-6.43h7.56l3.8 6.43-3.8 6.3-3.66-6.26zM26.59 8.87v1.87h-6.88s-.19-2.13.84-3.46c1.02-1.33 2.79-1.76 3.55-2.36.76-.6.73-1.87-.78-1.94-1.51-.08-2.3 1.49-2.3 1.49L19.7 3.2s.76-2.05 3.68-2.05c1.42 0 3.26.87 3.26 2.9 0 1.98-2.06 2.81-2.87 3.17-1.58.69-1.72 1.63-1.72 1.63l4.53.02z"/></g></svg>
