<svg xmlns="http://www.w3.org/2000/svg" width="75" height="75" viewBox="0 0 75 75"><defs><linearGradient id="a" x1="-1.725%" x2="101.725%" y1="49.94%" y2="49.94%"><stop offset="0%" stop-color="#3377DA"/><stop offset="100%" stop-color="#6AE6A7"/></linearGradient></defs><path fill="#515982" d="M53.0693 20.5795h-32.758c-4.4962 0-8.121 3.9877-8.121 8.8282v15.9125c0 4.7254 3.5139 8.5934 7.9014 8.5934l.2433-.004c4.3693-.14 8.2139-4.031 8.2139-8.5894l-.0009-3.1352H44.77l-.0001 3.1352c0 4.6427 3.9883 8.5934 8.4572 8.5934l.243-.004c3.869-.1264 7.018-3.2613 7.582-7.291l.0359-.2986.1023-16.9123c0-4.8453-3.6228-8.8282-8.121-8.8282zm-.1495 2.1339l.2156.0042c3.221.1274 5.8495 3.0968 5.8495 6.7616V45.2465c0 3.6246-2.6972 6.5332-5.9088 6.5332-3.3377 0-6.3982-3.0316-6.3982-6.5332v-3.145c.0145-.473-.1654-.9627-.5034-1.3325-.3447-.3771-.8255-.5982-1.3345-.61l-16.3376-.0003c-.532.0121-1.0129.2332-1.3576.6103-.338.3698-.5178.8595-.5029 1.362l-.0004 3.1155c0 3.5016-3.0605 6.5332-6.3982 6.5332-3.2084 0-5.8477-2.9052-5.8477-6.5332V29.4792c0-3.7417 2.749-6.7658 6.0652-6.7658h32.459z"/><path fill="url(#a)" d="M49.653 27.2038c.5355 0 .977.403 1.0372.9224l.007.1218-.0004 2.8128 2.8975.0002c.5767 0 1.0442.4676 1.0442 1.0443 0 .5355-.403.9768-.9224 1.0372l-.1218.007-2.8975-.0007.0005 3.0535c0 .5767-.4676 1.0442-1.0443 1.0442-.5355 0-.9768-.403-1.0372-.9224l-.007-.1218v-3.0535l-2.9688.0007c-.5767 0-1.0442-.4675-1.0442-1.0442 0-.5356.403-.977.9224-1.0372l.1218-.007 2.9688-.0003V28.248c0-.5767.4675-1.0442 1.0442-1.0442zm-25.6305 0c2.7733 0 5.0213 2.2481 5.0213 5.0333-.0328 2.7529-2.2565 4.9765-5.0213 5.0094-2.7732 0-5.0213-2.2481-5.0213-5.0214 0-2.7732 2.2481-5.0213 5.0213-5.0213zm0 2c-1.6686 0-3.0213 1.3527-3.0213 3.0213 0 1.6687 1.3527 3.0214 3.0094 3.0215 1.667-.0199 3.0135-1.3664 3.0333-3.0215 0-1.6686-1.3527-3.0213-3.0214-3.0213z"/><path fill="#515982" d="M36.7213 13.9396c.5129 0 .9355.386.9933.8834l.0067.1166v6.4451c0 .5523-.4477 1-1 1-.5128 0-.9355-.386-.9932-.8833l-.0068-.1167v-6.4451c0-.5523.4477-1 1-1z"/></svg>
