<svg xmlns="http://www.w3.org/2000/svg" width="75" height="75" viewBox="0 0 75 75"><defs><linearGradient id="a" x1="-.92%" x2="100.92%" y1="50.006%" y2="50.006%"><stop offset="0%" stop-color="#3F88F3"/><stop offset="100%" stop-color="#55EDA1"/></linearGradient></defs><path fill="url(#a)" d="M36.7213 13.9396c.5129 0 .9355.386.9933.8834l.0067.1166v5.639l15.348.0009c4.4165 0 7.989 3.8394 8.1174 8.5648l.0036.2634L61.088 46.32l-.0358.2986c-.5642 4.0297-3.713 7.1646-7.5822 7.291l-.243.004c-4.4688 0-8.4571-3.9507-8.4571-8.5934l.0001-3.1352H28.548l.0009 3.1352c0 4.5583-3.8446 8.4495-8.2139 8.5895l-.2433.0039c-4.3875 0-7.9014-3.868-7.9014-8.5934V29.4077c0-4.8405 3.6248-8.8282 8.121-8.8282l15.41-.001v-5.639c0-.5522.4477-1 1-1zm16.1985 8.7738h-32.459c-3.3163 0-6.0652 3.024-6.0652 6.7658v15.7673c0 3.628 2.6393 6.5332 5.8477 6.5332 3.3377 0 6.3982-3.0316 6.3982-6.5332l.0004-3.1156c-.015-.5024.165-.9921.503-1.3619.3446-.3771.8254-.5982 1.3575-.6103l16.3376.0003c.509.0118.9898.2329 1.3345.61.338.3698.5179.8595.5034 1.3325v3.145c0 3.5016 3.0605 6.5332 6.3982 6.5332 3.2116 0 5.9088-2.9086 5.9088-6.5332V29.4792c0-3.6648-2.6284-6.6342-5.8495-6.7616l-.2156-.0042z"/><path fill="#2AE88E" d="M49.653 27.2038c.5355 0 .977.403 1.0372.9224l.007.1218-.0004 2.8128 2.8975.0002c.5767 0 1.0442.4676 1.0442 1.0443 0 .5355-.403.9768-.9224 1.0372l-.1218.007-2.8975-.0007.0005 3.0535c0 .5767-.4676 1.0442-1.0443 1.0442-.5355 0-.9768-.403-1.0372-.9224l-.007-.1218v-3.0535l-2.9688.0007c-.5767 0-1.0442-.4675-1.0442-1.0442 0-.5356.403-.977.9224-1.0372l.1218-.007 2.9688-.0003V28.248c0-.5767.4675-1.0442 1.0442-1.0442zm-25.6305 0c2.7733 0 5.0213 2.2481 5.0213 5.0333-.0328 2.7529-2.2565 4.9765-5.0213 5.0094-2.7732 0-5.0213-2.2481-5.0213-5.0214 0-2.7732 2.2481-5.0213 5.0213-5.0213zm0 2c-1.6686 0-3.0213 1.3527-3.0213 3.0213 0 1.6687 1.3527 3.0214 3.0094 3.0215 1.667-.0199 3.0135-1.3664 3.0333-3.0215 0-1.6686-1.3527-3.0213-3.0214-3.0213z"/></svg>
