<svg xmlns="http://www.w3.org/2000/svg" viewBox="0 0 75 75"><path d="M19.824 19.002h37.323a2.581 2.581 0 0 1 2.586 2.576v28.24a2.581 2.581 0 0 1-2.586 2.575H34.374l-.346.503a30.243 30.243 0 0 1-2.857 3.478c-2.176 2.27-4.283 3.493-6.498 3.796l-1.486.203.482-1.42.337-.998.224-.687.233-.743.067-.224.113-.398c.303-1.108.545-2.38.736-3.9l-.052.39h-5.503a2.582 2.582 0 0 1-2.581-2.419l-.005-.157v-28.24a2.581 2.581 0 0 1 2.586-2.575Zm37.323 1.854H19.824a.727.727 0 0 0-.732.722v28.24c0 .396.327.72.732.72h7.608l-.213 1.697c-.202 1.601-.46 2.959-.787 4.157l-.121.428-.15.49-.192.605.06-.023c1.153-.475 2.322-1.306 3.556-2.548l.248-.254a28.42 28.42 0 0 0 2.876-3.544l.18-.268.473-.74h23.785a.727.727 0 0 0 .731-.72v-28.24a.727.727 0 0 0-.731-.722Z" fill="#080F2C"/><path d="M51.386 24.757c1.01 0 1.834.789 1.903 1.783l.005.137V44.38c0 1.012-.78 1.845-1.771 1.915l-.137.005H37.088a.908.908 0 0 1-.106-1.81l.106-.005h14.298c.037 0 .07-.025.085-.063l.008-.042V26.677a.105.105 0 0 0-.058-.097l-.035-.008H25.585a.094.094 0 0 0-.085.063l-.008.042V44.38c0 .045.025.081.058.097l.035.008h2.129a.908.908 0 0 1 .106 1.809l-.106.006h-2.13a1.913 1.913 0 0 1-1.902-1.783l-.005-.137V26.677c0-1.012.78-1.845 1.771-1.915l.137-.005h25.801Z" fill="url(#a)"/><defs><linearGradient id="a" x1="23.677" y1="35.732" x2="53.294" y2="35.732" gradientUnits="userSpaceOnUse"><stop stop-color="#4763FF"/><stop offset="1" stop-color="#55F8A7"/></linearGradient></defs></svg>
