<svg xmlns="http://www.w3.org/2000/svg" width="75" height="75" viewBox="0 0 75 75"><defs><linearGradient id="a" x1="-.92%" x2="100.92%" y1="50.006%" y2="50.006%"><stop offset="0%" stop-color="#3F88F3"/><stop offset="100%" stop-color="#55EDA1"/></linearGradient></defs><path fill="#2AE88E" d="M38.794 17.7l-.001 19.493 19.501.001v2l-19.501-.001.001 19.501h-2l-.001-19.501-19.493.001v-2l19.493-.001.001-19.493z"/><path fill="url(#a)" d="M37.7936 16.7c8.697-.0025 16.5388 5.2349 19.868 13.2693 3.3294 8.0345 1.4903 17.2833-4.6593 23.433-6.1497 6.1496-15.3985 7.9887-23.433 4.6594C21.535 54.7324 16.2975 46.8905 16.3 38.1908c.018-5.8084 2.3322-11.0756 6.0826-14.9418l.4664-.4664c3.8662-3.7504 9.1334-6.0646 14.9446-6.0826zm.0034 2c-10.754.0333-19.4637 8.743-19.497 19.4942-.0022 7.8879 4.7479 15.0002 12.035 18.0198 7.287 3.0196 15.6755 1.3517 21.253-4.226 5.5777-5.5775 7.2456-13.966 4.226-21.253-3.0196-7.2871-10.132-12.0372-18.017-12.035zm6.4144 34.8781a.9003.9003 0 110 1.8006.9003.9003 0 010-1.8006zm-12.9227 0a.9003.9003 0 110 1.8006.9003.9003 0 010-1.8006zm15.0589-4.2308a.9003.9003 0 110 1.8006.9003.9003 0 010-1.8006zm-17.1951 0a.9003.9003 0 110 1.8006.9003.9003 0 010-1.8006zm18.5754-4.2309a.9003.9003 0 110 1.8007.9003.9003 0 010-1.8007zm-19.9557 0a.9003.9003 0 110 1.8007.9003.9003 0 010-1.8007zm20.6948-4.2308a.9003.9003 0 110 1.8006.9003.9003 0 010-1.8006zm-21.434 0a.9003.9003 0 110 1.8006.9003.9003 0 010-1.8006zm21.434-6.871a.9003.9003 0 110 1.8006.9003.9003 0 010-1.8006zm-21.434 0a.9003.9003 0 110 1.8006.9003.9003 0 010-1.8006zm20.6949-4.2308a.9003.9003 0 110 1.8006.9003.9003 0 010-1.8006zm-19.9557 0a.9003.9003 0 110 1.8006.9003.9003 0 010-1.8006zm18.5754-4.2309a.9003.9003 0 110 1.8007.9003.9003 0 010-1.8007zm-17.1951 0a.9003.9003 0 110 1.8007.9003.9003 0 010-1.8007zm15.0589-4.2308a.9003.9003 0 110 1.8006.9003.9003 0 010-1.8006zm-12.9227 0a.9003.9003 0 110 1.8006.9003.9003 0 010-1.8006z"/></svg>
