<svg width="122" height="25"  xmlns="http://www.w3.org/2000/svg"><g clip-path="url(#a)"><path d="M0 6.25 10.858 0l10.86 6.25v12.5L10.858 25 0 18.75V6.25Z" /><path fill-rule="evenodd" clip-rule="evenodd" d="m18.984 16.953-7.969-4.531V3.203l2.5 1.406v6.406l5.469 3.204v2.734ZM8.359 20.468l2.5-1.406 2.422 1.484-2.422 1.407-2.5-1.485Zm2.266-8.046V3.203L8.203 4.61v6.406L2.656 14.22v2.734l7.969-4.531ZM2.89 17.343l7.968-4.609 7.969 4.61-2.422 1.406-5.547-3.203-5.547 3.203-2.421-1.407Z" fill="#fff"/><path fill-rule="evenodd" clip-rule="evenodd" d="M48.593 15.078c0 2.031-1.25 3.75-4.453 3.75-3.203 0-4.453-1.719-4.453-3.75V9.844c0-2.032 1.25-3.75 4.453-3.75 3.203 0 4.453 1.718 4.453 3.75v5.234Zm-19.14-6.953V18.75H27.89V6.25h2.188l5.468 10.703V6.25h1.563v12.5H34.92L29.453 8.125Zm14.609 9.297c-1.954 0-2.891-.782-2.891-2.344V9.922c0-1.485.937-2.344 2.89-2.344 1.954 0 2.891.781 2.891 2.344v5.156c0 1.484-.937 2.344-2.89 2.344ZM55.389 6.25c3.047 0 3.985 1.562 3.985 3.594v5.312c0 1.953-.938 3.594-3.985 3.594h-4.375V6.25h4.375Zm0 11.015h-2.734V7.656h2.734c1.875 0 2.422.781 2.422 2.266V15c0 1.484-.547 2.265-2.422 2.265ZM61.717 6.25h7.344v1.406h-5.703v3.906h5.312v1.407h-5.312v4.218h5.781v1.563h-7.422V6.25ZM75.39 17.422c-1.953 0-2.656-.547-2.656-2.266V9.844c0-1.72.625-2.266 2.656-2.266.703 0 1.953.078 2.89.234l.157-1.406c-.86-.156-2.188-.312-3.125-.312-3.047 0-4.219 1.328-4.219 3.671v5.47c0 2.343 1.172 3.67 4.219 3.67.937 0 2.265-.077 3.125-.312l-.157-1.406c-.937.156-2.109.235-2.89.235Zm9.844-3.204h-3.047v4.532h-1.64V6.25h4.765c2.656 0 3.593 1.172 3.593 3.047v1.796c0 1.485-.546 2.5-1.953 2.891l3.203 4.688H88.28l-3.046-4.454Zm-3.047-6.562h3.125c1.484 0 2.03.469 2.03 1.719v1.719c0 1.171-.468 1.64-2.03 1.64h-3.125V7.656ZM101.56 18.75h-1.64l-1.016-2.97h-5.312l-1.016 2.97h-1.64l4.218-12.5h2.188l4.218 12.5Zm-7.578-4.375 2.266-6.953 2.187 6.953h-4.453Zm9.219 4.375V6.25h7.422v1.406h-5.782v4.14h5.391v1.485h-5.391v5.469h-1.64Zm8.828-11.094h3.672V18.75h1.64V7.656h3.75V6.25h-9.062v1.406Z" /><path d="M16.173 6.407v3.044l2.654 1.488-2.265 1.327-2.58-1.563V7.735l2.191-1.328Z" fill="#fff"/><path fill-rule="evenodd" clip-rule="evenodd" d="m18.984 7.812-2.422-1.406V9.22l2.422 1.406V7.812ZM5.547 9.453V6.406l2.187 1.328v2.969l-2.656 1.562-2.187-1.328 2.656-1.484Z" fill="#fff"/><path fill-rule="evenodd" clip-rule="evenodd" d="m2.656 7.812 2.5-1.406V9.22l-2.5 1.406V7.812Zm10.781 12.344L10.86 18.67l-2.656 1.485v-2.5l2.656-1.563 2.578 1.563v2.5Z" fill="#fff"/></g><defs><clipPath id="a"><path fill="#fff" d="M0 0h122v25H0z"/></clipPath></defs></svg>
