<svg xmlns="http://www.w3.org/2000/svg" fill="none" viewBox="0 0 170 45"><path fill="#0EA7E7" d="M0 13.75 15.203 5l15.203 8.75v17.5L15.203 40 0 31.25v-17.5Z"/><path fill="#282A29" fill-rule="evenodd" d="M68.031 26.11c0 2.843-1.75 5.25-6.234 5.25s-6.234-2.407-6.234-5.25V18.78c0-2.843 1.75-5.25 6.234-5.25s6.234 2.406 6.234 5.25v7.328Zm-26.797-9.735V31.25h-2.187v-17.5h3.062l7.657 14.984V13.75h2.187v17.5h-3.062l-7.657-14.875Zm20.453 13.016c-2.734 0-4.046-1.094-4.046-3.282v-7.218c0-2.078 1.312-3.282 4.047-3.282 2.734 0 4.046 1.094 4.046 3.282v7.218c0 2.078-1.312 3.282-4.046 3.282Zm15.86-15.641c4.266 0 5.578 2.188 5.578 5.031v7.438c0 2.734-1.313 5.031-5.578 5.031h-6.125v-17.5h6.125Zm0 15.422h-3.828V15.719h3.828c2.625 0 3.39 1.094 3.39 3.172V26c0 2.078-.765 3.172-3.39 3.172Zm8.86-15.422h10.28v1.969h-7.984v5.469h7.438v1.968h-7.438v5.907h8.094v2.187h-10.39v-17.5Zm19.14 15.64c-2.735 0-3.719-.765-3.719-3.171V18.78c0-2.406.875-3.172 3.719-3.172.984 0 2.734.11 4.047.329l.218-1.97c-1.203-.218-3.062-.437-4.374-.437-4.266 0-5.907 1.86-5.907 5.14v7.657c0 3.281 1.641 5.14 5.907 5.14 1.312 0 3.171-.109 4.374-.437l-.218-1.968a27.422 27.422 0 0 1-4.047.328Zm13.781-4.484h-4.266v6.344h-2.296v-17.5h6.672c3.718 0 5.031 1.64 5.031 4.266v2.515c0 2.078-.766 3.5-2.735 4.047l4.485 6.563h-2.625l-4.266-6.235Zm-4.266-9.187h4.376c2.078 0 2.843.656 2.843 2.406v2.406c0 1.64-.656 2.297-2.843 2.297h-4.376v-7.11Zm27.126 15.531h-2.297l-1.422-4.156h-7.438l-1.422 4.156h-2.297l5.907-17.5h3.062l5.907 17.5Zm-10.61-6.125 3.172-9.734 3.062 9.734h-6.234Zm12.906 6.125v-17.5h10.391v1.969h-8.094v5.797h7.547v2.078h-7.547v7.656h-2.297Zm12.36-15.531h5.14V31.25h2.297V15.719h5.25V13.75h-12.687v1.969Z" clip-rule="evenodd"/><path fill="#fff" d="M22.64 13.969v4.265l3.72 2.078-3.172 1.86-3.61-2.188v-4.156l3.063-1.86Z"/><path fill="#fff" fill-rule="evenodd" d="M7.766 18.234V13.97l3.062 1.86v4.155L7.11 22.172l-3.062-1.86 3.719-2.078Zm18.812-2.297-3.39-1.968v3.937l3.39 1.969v-3.938Z" clip-rule="evenodd"/><path fill="#fff" fill-rule="evenodd" d="m3.719 15.938 3.5-1.97v3.938l-3.5 1.969v-3.938Zm15.094 17.28-3.61-2.077-3.719 2.078v-3.5l3.72-2.188 3.608 2.188v3.5Z" clip-rule="evenodd"/><path fill="#fff" fill-rule="evenodd" d="M14.875 22.39V9.485l-3.39 1.97v8.968l-7.766 4.484v3.828l11.156-6.343Zm11.703 6.344-11.156-6.343V9.484l3.5 1.97v8.968l7.656 4.484v3.828Zm-14.875 4.922 3.5-1.968 3.39 2.078-3.39 1.968-3.5-2.078Zm-7.656-4.375 11.156-6.453 11.156 6.453-3.39 1.969-7.766-4.484-7.765 4.484-3.391-1.969Z" clip-rule="evenodd"/></svg>
