<svg xmlns="http://www.w3.org/2000/svg" fill="none" viewBox="0 0 45 45"><path fill="#080F2C" d="M22.336 9.23c7.33 0 13.27 5.94 13.27 13.27 0 1.91-.403 3.763-1.174 5.465a.57.57 0 1 1-1.038-.47 12.084 12.084 0 0 0 1.073-4.995c0-6.7-5.431-12.13-12.13-12.13-6.692.018-12.112 5.44-12.131 12.13 0 6.7 5.43 12.13 12.13 12.13 3.475 0 6.711-1.467 8.997-3.993a.57.57 0 0 1 .846.765 13.236 13.236 0 0 1-9.843 4.368c-7.329 0-13.27-5.941-13.27-13.272a13.263 13.263 0 0 1 3.754-9.226l.288-.288a13.265 13.265 0 0 1 9.228-3.754Z"/><path fill="#080F2C" d="M22.337 9.23c1.765 0 3.3 1.606 4.37 4.162l.14.347c.137.352.266.72.386 1.103l.116.388c.02.066.038.131.056.198l.108.402.1.411.05.209.09.424.085.432.079.44c.249 1.48.383 3.084.383 4.754 0 .669-.021 1.326-.063 1.97l-.035.48c-.032.397-.072.789-.12 1.173l-.06.458-.068.451-.037.223-.078.44-.085.433-.045.213-.094.42c-.033.138-.066.275-.101.41l-.107.402c-.166.597-.353 1.161-.558 1.689l-.14.346c-1.07 2.555-2.604 4.159-4.372 4.159-2.082 0-3.84-2.226-4.897-5.61l-.117-.387c-.113-.393-.218-.8-.312-1.22l-.092-.424-.043-.215-.081-.436-.075-.444a26.61 26.61 0 0 1-.156-1.14l-.05-.468a28.708 28.708 0 0 1-.022-.236l-.04-.477-.016-.24-.027-.486a30.122 30.122 0 0 1-.02-.49L16.377 23a28.51 28.51 0 0 1 .432-5.536.57.57 0 1 1 1.121.203 27.371 27.371 0 0 0-.417 4.834l.001.248.008.491.008.244.02.484.013.24.033.474.04.469c.014.155.03.309.046.461l.055.455.03.224.064.444c.023.146.047.291.072.435l.078.426.041.21.088.414c.06.272.125.539.193.798l.105.384.11.374c.247.798.53 1.52.841 2.148l.146.283c.814 1.52 1.805 2.42 2.832 2.42 1.183 0 2.317-1.192 3.189-3.152l.135-.315c.177-.43.343-.892.494-1.383l.11-.373.054-.191.102-.39.05-.198.093-.404.087-.413.042-.21.078-.427.036-.217.069-.44.06-.446.029-.227.05-.458c.016-.154.03-.309.044-.465l.036-.472a28.798 28.798 0 0 0 .015-3.65l-.032-.476-.04-.468c-.029-.31-.063-.616-.102-.916l-.061-.447-.068-.44a22.706 22.706 0 0 0-.037-.216l-.078-.427-.085-.418-.09-.409a21.642 21.642 0 0 0-.097-.4l-.103-.389a19.254 19.254 0 0 0-.108-.379l-.113-.368a16.352 16.352 0 0 0-.242-.704l-.129-.334c-.894-2.243-2.115-3.634-3.388-3.634-1.111 0-2.262 1.103-3.176 3.135a.57.57 0 1 1-1.04-.468c1.079-2.396 2.55-3.807 4.216-3.807Z"/><path fill="#080F2C" d="M20.344 21.887a.57.57 0 0 1 .066 1.136l-.066.004H9.791a.57.57 0 0 1-.067-1.136l.067-.004h10.553ZM34.76 21.887a.57.57 0 0 1 .066 1.136l-.066.004H23.967a.57.57 0 0 1-.066-1.136l.066-.004H34.76Z"/><path fill="url(#a)" fill-rule="evenodd" d="M17.943 12.703a2.587 2.587 0 1 0 0 5.175 2.587 2.587 0 0 0 0-5.175Zm0 1.14a1.447 1.447 0 1 1 0 2.895 1.447 1.447 0 0 1 0-2.895Zm4.221 6.97a2.587 2.587 0 1 0 0 5.174 2.587 2.587 0 0 0 0-5.174Zm0 1.14a1.447 1.447 0 1 1 0 2.894 1.447 1.447 0 0 1 0-2.894Zm-9.333 5.869a2.587 2.587 0 1 1 5.175 0 2.587 2.587 0 0 1-5.175 0Zm4.035 0a1.447 1.447 0 1 0-2.895 0 1.447 1.447 0 0 0 2.895 0Zm15.122-1.602a2.587 2.587 0 1 0 0 5.174 2.587 2.587 0 0 0 0-5.174Zm0 1.14a1.447 1.447 0 1 1 0 2.894 1.447 1.447 0 0 1 0-2.894Z" clip-rule="evenodd"/><defs><linearGradient id="a" x1="12.831" x2="34.575" y1="22.225" y2="22.225" gradientUnits="userSpaceOnUse"><stop stop-color="#4763FF"/><stop offset="1" stop-color="#55F8A7"/></linearGradient></defs></svg>
