<svg xmlns="http://www.w3.org/2000/svg" fill="none" viewBox="0 0 97 45"><path fill="#222" fill-rule="evenodd" d="M53.456 5.32a.862.862 0 0 0-.698-.32c-.325.011-.65.043-.97.096-.916.153-1.835.282-2.755.41-.46.065-.922.13-1.382.197-.868.123-1.226.601-1.226 1.396.006 10.372.01 20.744.01 31.116 0 .934.413 1.348 1.351 1.348 1.474.005 2.947.005 4.42 0 .897 0 1.257-.373 1.263-1.28v-1.512l.132.123c.061.057.096.09.13.125 1.05 1.139 2.384 1.76 3.805 2.36.868.367 2.248.636 3.744.62.916-.005 1.83-.111 2.722-.318 4-.836 6.954-3.034 8.662-6.768 1.405-3.08 1.607-6.314.814-9.594-.82-3.378-2.687-6.005-5.735-7.75a12.432 12.432 0 0 0-5.242-1.572c-2.422-.19-4.754.12-6.875 1.424a2.07 2.07 0 0 1-.36.185 1.054 1.054 0 0 1-1.458-.93 5.15 5.15 0 0 1-.001-.31l.001-.156c0-.647-.001-1.293-.003-1.94-.003-1.89-.007-3.78.014-5.671.005-.505-.083-.93-.363-1.28Zm-26.93 15.977c-1.614-3.4-4.32-5.555-7.877-6.658a15.495 15.495 0 0 0-8.654-.216c-4.987 1.317-8.326 4.36-9.605 9.46-.24.967-.371 1.959-.39 2.956 0 1.522.193 2.342.315 2.86l.024.099c1.164 4.96 4.295 8.055 9.107 9.519a17.96 17.96 0 0 0 8.07.232c2.977-.69 5.528-2.093 7.47-4.498 1.551-1.917 2.406-4.12 2.68-6.57.281-2.507-.062-4.91-1.14-7.184Zm50.804-7.002c.8-.023 1.343.25 1.803.912.808 1.16 1.642 2.3 2.476 3.441l.002.003c.377.515.754 1.03 1.129 1.547l.04.058c.031.044.063.089.097.13.558.699 1.307.699 1.85-.01.474-.62.937-1.247 1.4-1.874.238-.323.477-.647.718-.97.22-.296.443-.591.666-.886.42-.556.838-1.11 1.241-1.673.281-.433.769-.686 1.285-.667h4.536c.54 0 .993.173 1.242.699.248.525.067.93-.246 1.344-2.35 3.083-4.696 6.167-7.04 9.252l-.059.078-.15.2c-.432.601-.439.995 0 1.583a1951.44 1951.44 0 0 0 3.113 4.124l4.698 6.211.043.077c.146.252.297.515.084.977-.324.53-.788.732-1.412.721a162.723 162.723 0 0 0-4.886 0 1.512 1.512 0 0 1-1.367-.704c-.887-1.268-1.789-2.527-2.692-3.787l-.002-.004-.001-.001a1026.16 1026.16 0 0 1-1.087-1.52l-.02-.026-.042-.061a7.086 7.086 0 0 0-.276-.378c-.512-.626-1.288-.632-1.781.013-.548.716-1.08 1.442-1.614 2.171v.001c-.154.21-.307.42-.462.629l-.67.901a159.71 159.71 0 0 0-1.54 2.093c-.32.447-.713.67-1.271.665-.898-.008-1.796-.007-2.694-.006-.692 0-1.383.002-2.075-.002a1.746 1.746 0 0 1-.516-.064c-.766-.244-1.047-1.098-.555-1.786.43-.603.888-1.196 1.345-1.787l.48-.624c1.938-2.54 3.88-5.08 5.826-7.618.465-.604.453-1.062-.011-1.682l-7.172-9.586a3.012 3.012 0 0 1-.263-.382 1.113 1.113 0 0 1 .667-1.629c.242-.064.492-.094.743-.087.51-.002 1.021 0 1.532.003.963.004 1.926.009 2.888-.02Zm-32.383.47c-.009-.89-.431-1.341-1.31-1.364-1.396-.034-2.785.045-4.152.375a13.448 13.448 0 0 0-10.25 13.003v5.35l.006 4.543c0 .188-.002.375-.003.562-.004.375-.008.75.003 1.125.021.703.43 1.184 1.093 1.192 1.726.021 3.451.021 5.175 0 .597-.007 1.007-.429 1.083-1.02a4.57 4.57 0 0 0 .013-.582c0-1.248-.002-2.495-.003-3.743-.003-2.494-.007-4.988.003-7.483.01-2.838 1.93-5.215 4.703-5.786.738-.143 1.49-.204 2.242-.18.917.024 1.397-.53 1.397-1.396 0-.51 0-1.021.002-1.532.003-1.021.005-2.042-.002-3.063ZM13.66 20.029c-2.57.117-4.471 1.3-5.518 3.688-.714 1.628-.783 3.337-.435 5.07.233 1.163.707 2.217 1.52 3.088 1.603 1.722 3.625 2.245 5.883 1.87 2.496-.415 4.098-1.916 4.816-4.321.065-.214.117-.434.161-.653v-.002a9.656 9.656 0 0 0 .072-3.364c-.205-1.29-.692-2.462-1.584-3.432-1.321-1.435-3.002-2.027-4.915-1.944Zm40.78 3.42c1.056-2.196 2.868-3.29 5.27-3.425 1.667-.094 3.184.338 4.48 1.433 1.033.87 1.65 1.996 1.978 3.283a8.64 8.64 0 0 1-.042 4.536c-.814 2.877-3.063 4.574-6.05 4.574-3.402 0-5.927-2.3-6.282-5.69-.173-1.631-.07-3.22.647-4.711Z" clip-rule="evenodd"/></svg>
