<svg xmlns="http://www.w3.org/2000/svg" viewBox="0 0 26 19" width="26" height="19"><path d="M25.82 17.15c-.01.23-.05.45-.14.66-.09.21-.22.4-.38.55-.16.16-.35.29-.56.37-.21.08-.44.13-.66.12H1.93c-.23.01-.45-.04-.66-.12-.21-.08-.4-.21-.56-.37-.17-.15-.29-.34-.38-.55-.09-.21-.14-.43-.14-.66V1.85c0-.23.05-.45.14-.66C.42.98.54.79.71.64c.16-.16.35-.29.56-.37.21-.08.43-.13.66-.12h22.15c.22-.01.45.04.66.12.21.08.4.21.56.37.16.15.29.34.38.55.09.21.13.43.14.66v15.3Z" fill="none"/><path fill-rule="evenodd" fill="#ffffff" d="M1.93 19C.9 19.01.05 18.18.04 17.15V1.85C.05.82.9-.01 1.93 0h22.15c1.03-.01 1.87.82 1.88 1.85v15.31c-.01 1.02-.85 1.85-1.88 1.84H1.93ZM.34 17.15c.01.87.72 1.57 1.59 1.56h22.15c.87.01 1.58-.69 1.59-1.56V1.85C25.66.98 24.95.29 24.08.3H1.93C1.06.29.35.98.34 1.85v15.3Z"/><path fill="#ffffff" d="M25.87 17.15c-.01.96-.79 1.72-1.75 1.7H1.87c-.95.02-1.73-.74-1.74-1.7V1.85C.14.9.92.14 1.87.15h22.25c.96-.01 1.74.75 1.75 1.7v15.3Z"/><path fill-rule="evenodd" fill="#0064a7" d="M1.87 19c-1.03.01-1.88-.81-1.89-1.85V1.85C-.02.83.83 0 1.87 0h22.25c1.05.01 1.9.83 1.9 1.85v15.3c0 .25-.06.49-.15.72-.1.22-.24.43-.41.6-.18.17-.39.31-.62.4-.22.09-.47.13-.71.13H1.87ZM.28 1.85v15.3c.01.87.72 1.57 1.59 1.56h22.25c.87.01 1.59-.69 1.6-1.56V1.85C25.71.98 24.99.28 24.12.3H1.87C1 .28.29.98.28 1.85Z"/><path fill-rule="evenodd" fill="#1d1d1b" d="M2.57 11.47c0-.42-.21-.4-.42-.4v-.12c.18.01.36.01.55.01.18 0 .46-.01.8-.01 1.21 0 1.87.81 1.87 1.64 0 .46-.27 1.62-1.92 1.62-.24 0-.46-.01-.67-.01-.22 0-.42 0-.63.01v-.12c.28-.03.42-.04.43-.36l-.01-2.26Zm.95 2.59c1.01 0 1.34-.76 1.34-1.46 0-.87-.56-1.5-1.46-1.5-.19 0-.28.01-.36.02v2.53c0 .36.25.41.48.41Zm2.52-2.71c-.03 0-.06 0-.09-.01s-.06-.03-.08-.05c-.02-.02-.03-.05-.05-.08-.01-.02-.01-.05-.01-.08s0-.06.01-.09c.02-.03.03-.05.05-.08.02-.02.05-.03.08-.05.03-.01.06-.01.09-.01.12 0 .22.1.22.22 0 .13-.1.23-.22.23Zm-.5 2.73h.08c.13 0 .23 0 .23-.15v-1.27c0-.2-.07-.23-.25-.32v-.08c.22-.06.49-.15.51-.16 0-.01.01-.01.02-.01 0-.01.01-.01.02-.01 0 0 .01 0 .02-.01h.02c.02 0 .03.03.03.07v1.79c0 .16.11.16.24.16h.08v.12c-.16 0-.33-.01-.5-.01-.16 0-.33 0-.5.01v-.13Zm1.17-1.69v-.09c.05-.02.1-.03.15-.05.06-.02.11-.04.16-.06.05-.01.1-.03.15-.05l.15-.06c.02-.01.03 0 .03.04v.3c.27-.19.5-.35.81-.35.4 0 .53.29.53.66v1.2c0 .16.11.16.24.16h.08v.12c-.16 0-.32-.01-.49-.01-.17 0-.34 0-.51.01v-.12h.09c.13 0 .22 0 .22-.16v-1.21c0-.26-.16-.4-.43-.4-.15 0-.38.13-.54.23v1.38c0 .16.1.16.23.16h.09v.12c-.17 0-.33-.01-.5-.01-.17 0-.33 0-.5.01v-.12h.08c.13 0 .23 0 .23-.16v-1.24c0-.17-.05-.22-.27-.3Zm2.66.53c-.01.02-.01.04-.01.07v.13c0 .02 0 .05.01.07.03.44.31.8.68.8.26 0 .46-.14.63-.31l.07.07c-.22.29-.48.53-.87.53-.74 0-.89-.72-.89-1.02 0-.92.62-1.19.94-1.19.38 0 .79.24.79.74v.08l-.04.03H9.37Zm.82-.15c.12 0 .13-.06.13-.12 0-.24-.14-.43-.4-.43-.29 0-.48.21-.54.55h.81Zm.64 1.31h.13c.13 0 .22 0 .22-.15v-1.31c0-.15-.17-.17-.24-.21v-.07c.34-.15.53-.27.57-.27.03 0 .04.02.04.06v.42h.01c.12-.18.31-.48.6-.48.03 0 .06.01.1.02.03.01.06.03.08.05.03.02.05.05.06.08.01.03.02.07.02.1s0 .06-.01.09-.03.05-.05.08c-.02.02-.04.04-.07.05-.03.01-.06.02-.09.02-.14 0-.14-.11-.31-.11-.04 0-.09.02-.13.04-.04.02-.07.05-.11.09-.03.03-.05.07-.07.11-.02.05-.02.09-.02.14l-.01 1.1c0 .16.1.16.23.16h.26v.12c-.26-.01-.45-.01-.65-.01s-.39 0-.56.01v-.13Zm2.39.05c.27 0 .37-.17.37-.34 0-.55-1.01-.37-1.01-1.12 0-.26.21-.6.72-.6.05 0 .09.01.14.01.04.01.09.02.13.03.05.01.09.03.13.04.05.02.09.04.13.06l.03.47h-.1c-.05-.29-.21-.46-.51-.46-.19 0-.37.11-.37.31 0 .55 1.09.38 1.09 1.11 0 .31-.25.64-.81.64-.05-.01-.09-.01-.14-.02l-.15-.03c-.05-.01-.09-.03-.14-.05-.05-.02-.09-.04-.13-.06l-.06-.54.09-.02c.06.3.25.57.59.57Zm4.84-2.34c-.09-.54-.48-.77-1-.77-.53 0-1.31.36-1.31 1.48 0 .95.67 1.62 1.39 1.62.11 0 .22-.02.33-.06.1-.04.2-.09.29-.17.08-.07.15-.16.21-.26.05-.1.09-.2.11-.32l.1.03-.1.69c-.2.12-.73.25-1.03.25-1.1 0-1.79-.71-1.79-1.76 0-.96.86-1.64 1.77-1.64.38 0 .74.12 1.1.25l.05.66h-.12Zm.29 2.29h.09c.13 0 .22 0 .22-.15v-2.59c0-.31-.07-.32-.25-.37v-.07c.04-.02.08-.03.13-.05.04-.01.08-.03.12-.04l.12-.06c.04-.01.07-.03.11-.05.01-.01.02-.01.03-.02.01 0 .01-.01.02-.01.01-.01.02-.01.03-.02.01 0 .02 0 .02-.01.03 0 .04.03.04.07v3.22c0 .16.11.16.24.16h.08v.12c-.16 0-.33-.01-.49-.01-.17 0-.34 0-.51.01v-.13Zm3.12-.04c.06 0 .13-.01.19-.01v.1c-.06.01-.11.02-.17.03-.06.01-.11.02-.17.03-.06.01-.11.02-.17.04-.05.01-.11.03-.16.04l-.03-.01v-.38c-.28.23-.49.39-.82.39-.25 0-.52-.16-.52-.55v-1.19c0-.13-.01-.24-.28-.27v-.08c.17 0 .55-.04.61-.04.06 0 .05.04.05.14v1.2c0 .14 0 .54.4.54.16 0 .37-.12.57-.28v-1.26c0-.09-.23-.14-.39-.19v-.08c.42-.03.68-.07.72-.07.05 0 .04.03.04.09v1.72c0 .08.05.09.13.09Zm1.5-1.97c.54 0 .86.47.86.98 0 .61-.45 1.23-1.11 1.23-.06 0-.12-.01-.17-.02-.06 0-.11-.01-.17-.03a.983.983 0 0 1-.16-.05c-.05-.02-.1-.04-.15-.07l-.14.11-.1-.05.03-.21c.01-.07.02-.14.02-.2.01-.07.01-.14.01-.21.01-.07.01-.14.01-.21v-2.01c0-.3-.07-.31-.25-.36v-.08c.04-.01.08-.02.12-.04.05-.01.09-.03.13-.05.04-.01.08-.03.12-.05.03-.02.07-.04.11-.06.01 0 .02-.01.03-.01 0-.01.01-.01.02-.02.01 0 .02-.01.03-.01.01 0 .02-.01.03-.01.02 0 .03.03.03.07v1.7c.19-.16.44-.34.7-.34Zm-.66 1.79c.03.06.06.11.11.15.04.05.09.08.15.11.06.02.12.04.18.04.5 0 .71-.49.71-.91 0-.5-.38-.92-.74-.92-.18 0-.32.11-.45.22v1.13c0 .06.02.12.04.18ZM2.14 16.92h.04c.09 0 .19-.01.19-.15v-1.33c0-.13-.09-.14-.19-.14h-.04v-.08c.1 0 .26.01.38.01.13 0 .28-.01.4-.01v.08h-.04c-.09 0-.18.01-.18.14v1.33c0 .14.09.15.18.15h.04v.07c-.12 0-.27-.01-.4-.01s-.28.01-.38.01v-.07Z"/><path fill-rule="evenodd" fill="#1d1d1b" d="M3.12 17c-.15 0-.34-.01-.5-.01-.16 0-.34.01-.47.01h-.01v-.09h.05c.13 0 .23-.01.23-.14v-1.33c0-.12-.11-.13-.23-.13h-.05v-.1h.01c.12 0 .32.01.47.01.16 0 .35-.01.5-.01h.02v.1h-.06c-.12 0-.22.01-.22.13v1.33c0 .13.1.13.22.14h.06V17h-.02Zm-.01-.02Zm0-.05h-.04c-.11 0-.24-.02-.25-.16v-1.33c0-.14.14-.15.25-.15h.04v-.06c-.15 0-.34.01-.49.01-.15 0-.33-.01-.46-.01v.06h.03c.12 0 .25.01.25.15v1.33c0 .14-.13.16-.25.16h-.03v.05c.13 0 .31-.01.46-.01.15 0 .34.01.49.01v-.05Z"/><path fill="#1d1d1b" d="M4.66 16.49h.01v-.95c0-.03 0-.07-.01-.1s-.02-.05-.05-.08c-.02-.02-.04-.04-.07-.05-.03-.01-.06-.01-.09-.01h-.06v-.08c.12 0 .24.01.36.01.1 0 .2-.01.31-.01v.08h-.04c-.11 0-.23.02-.23.32v1.22c.01.02.01.04.01.06v.07c0 .02.01.04.01.06h-.1l-1.3-1.46v1.05c0 .22.04.3.24.3h.04V17c-.11 0-.22-.01-.33-.01-.11 0-.23.01-.34.01v-.08h.04c.17 0 .22-.12.22-.32v-1.07c0-.03 0-.06-.01-.09s-.03-.06-.05-.08c-.02-.02-.05-.03-.08-.05-.03-.01-.06-.01-.09-.01h-.03v-.08c.1 0 .19.01.29.01.07 0 .15-.01.22-.01l1.13 1.27Z"/><path fill-rule="evenodd" fill="#1d1d1b" d="M4.81 17.04H4.7L3.42 15.6v1.02c0 .22.03.29.22.29h.06v.1h-.01c-.11 0-.22-.01-.33-.01-.11 0-.23.01-.34.01H3v-.1h.06c.16 0 .21-.11.21-.31v-1.07c0-.03 0-.06-.01-.09-.01-.02-.03-.05-.05-.07-.02-.02-.05-.03-.07-.05-.03-.01-.06-.01-.09-.01h-.04v-.1h.01c.1 0 .2.01.29.01.07 0 .15-.01.23 0l1.12 1.25v-.93c0-.2-.14-.23-.21-.23h-.07v-.1h.01c.12 0 .24.01.36.01.1 0 .2-.01.31-.01h.01v.1h-.05c-.1 0-.21.01-.21.31v1.15c0 .09 0 .17.01.26v.01h-.01Zm-.1-.02h.09c-.01-.02-.01-.04-.01-.06v-.06c0-.02-.01-.04-.01-.06v-1.22c0-.3.13-.33.24-.33h.03v-.05H4.4v.05h.05c.03 0 .06 0 .09.01.03.02.06.04.08.06.02.02.04.05.05.08.01.03.01.07.01.1v.96l-.01.01-1.13-1.28c-.08 0-.15.01-.23.01-.1 0-.19-.01-.28-.01v.06h.02c.03 0 .07 0 .09.01.03.02.06.03.08.06.03.02.04.04.06.07.01.03.01.06.01.1v1.07c0 .2-.05.33-.24.33h-.02v.05c.11 0 .22-.01.33-.01.11 0 .21.01.32.01v-.05h-.04c-.2 0-.24-.09-.24-.31v-1.07l1.31 1.47Zm.49-1.44h-.07c.01-.07.02-.14.03-.22v-.05c.01-.02.01-.04.01-.05v-.11h.06c.02.07.09.07.16.07h1.3c.07 0 .14 0 .14-.08l.06.01c-.01.07-.02.14-.02.21-.01.07 0 .14 0 .2l-.08.03c0-.09-.02-.24-.19-.24h-.42v1.35c0 .19.09.22.21.22h.05v.07c-.1 0-.28-.01-.41-.01-.14 0-.33.01-.43.01v-.07h.05c.14 0 .21-.01.21-.22v-1.35h-.42c-.19 0-.2.04-.24.23Z"/><path fill="#1d1d1b" d="M6.44 17.01c-.1 0-.28-.01-.41-.01-.16 0-.33.01-.43.01h-.01v-.1h.06c.14 0 .19 0 .2-.2v-1.35h-.41v-.02h.43v1.37c0 .2-.09.22-.23.22h-.03v.06c.09 0 .27-.01.42-.01.14 0 .3.01.4.01v-.06h-.04c-.12 0-.22-.03-.22-.23v-1.36h.43c.17 0 .19.14.19.24l.06-.02v-.2c.01-.07.02-.13.03-.19l-.04-.01c-.01.07-.08.08-.15.08H5.37c-.06 0-.12 0-.15-.08h-.04v.11c0 .01 0 .03-.01.05v.05c-.01.07-.02.14-.03.2h.05c.04-.18.06-.23.25-.23v.02c-.19 0-.18.04-.23.22v.01h-.09v-.01c.01-.07.02-.14.03-.22v-.05c.01-.02.01-.03.01-.05v-.12h.08v.01c.02.06.07.06.13.06h1.32c.08 0 .13 0 .13-.07v-.01h.01l.08.01v.02c-.01.01-.01.03-.01.05 0 .01-.01.03-.01.05 0 .02 0 .03-.01.05v.05c-.01.07 0 .14 0 .21h-.01l-.09.04v-.02c-.01-.09-.02-.23-.18-.23h-.41v1.34c0 .19.08.2.2.21h.06V17l-.01.01Zm.53-.09h.04c.1 0 .19-.01.19-.15v-1.33c0-.13-.09-.14-.19-.14h-.04v-.08c.16 0 .42.01.64.01.21 0 .48-.01.65-.01v.39l-.07.02c-.02-.17-.05-.3-.31-.3h-.36v.66h.3c.16 0 .19-.08.21-.22h.07c0 .1-.01.2-.01.3 0 .1 0 .19.01.29l-.07.01c-.02-.15-.03-.25-.2-.25h-.31v.6c0 .16.15.16.31.16.31 0 .44-.02.52-.31l.07.02c-.03.14-.06.27-.09.41-.16 0-.45-.01-.68-.01-.23 0-.53.01-.67.01l-.01-.08Z"/><path fill-rule="evenodd" fill="#1d1d1b" d="M7.65 16.99c-.23 0-.53.01-.67.01h-.01v-.09h.04c.1 0 .18-.01.18-.14v-1.33c0-.12-.08-.13-.18-.13h-.04v-.1h.01c.15 0 .42.01.63.01.21 0 .48-.01.65-.01h.01v.15c0 .08 0 .18.01.25v.01h-.01l-.09.02v-.01c-.02-.16-.04-.29-.3-.29h-.35v.64h.29c.15 0 .17-.07.19-.21v-.01h.1v.01c0 .1-.01.2-.01.3 0 .1 0 .19.01.29v.01H8.1l-.09.01v-.01c-.01-.15-.02-.24-.19-.24h-.29v.58c0 .15.14.15.3.15.31 0 .43-.02.51-.3v-.01h.01l.08.02v.01c-.04.13-.07.27-.09.4v.01l-.01.01c-.16 0-.45-.01-.68-.01Zm.67-.01c.01-.03.01-.06.02-.09.01-.04.01-.07.02-.1s.02-.06.02-.1l.03-.09-.05-.01c-.08.28-.23.31-.53.3-.16 0-.32 0-.32-.17v-.61h.32c.17 0 .19.11.21.25l.05-.01v-.07c0-.02 0-.04-.01-.07v-.14c0-.09 0-.19.01-.29h-.05c-.02.14-.06.23-.22.23h-.31v-.69h.37c.26 0 .3.14.31.29l.06-.01c0-.07-.01-.16-.01-.25v-.12c-.17 0-.43.01-.64.01-.21 0-.46-.01-.62-.01v.06h.03c.09 0 .2.01.2.15v1.33c0 .14-.11.16-.2.16h-.02v.05c.14 0 .44-.01.66-.01.22 0 .51.01.67.01Zm.26-1.68h-.05v-.08c.08 0 .24.01.4.01.15 0 .27-.01.4-.01.32 0 .61.09.61.45 0 .23-.15.37-.35.45l.43.65c.01.02.03.04.04.06.02.02.04.03.06.05.02.01.05.02.07.03.03 0 .05.01.08.01v.07c-.09 0-.17-.01-.25-.01-.09 0-.16.01-.24.01-.05-.06-.1-.13-.14-.19-.05-.07-.1-.14-.14-.21-.04-.07-.09-.14-.13-.21l-.12-.21h-.16v.55c0 .19.09.2.2.2h.05V17c-.14 0-.29-.01-.44-.01-.12 0-.24.01-.36.01v-.08h.04c.1 0 .18-.04.18-.14v-1.29c0-.18-.1-.19-.18-.19Zm.63.78c.25 0 .39-.1.39-.4.01-.05 0-.1-.02-.14-.02-.05-.04-.09-.08-.13-.03-.03-.08-.06-.12-.08-.05-.01-.1-.02-.15-.02h-.04c-.01 0-.02.01-.03.01h-.07v.76h.12Z"/><path fill-rule="evenodd" fill="#1d1d1b" d="M10.27 17.01c-.09 0-.17-.01-.25-.01-.08 0-.16.01-.25 0-.05-.06-.09-.13-.14-.19-.05-.07-.09-.14-.13-.21-.05-.07-.09-.13-.13-.2l-.12-.21H9.1v.53c0 .19.08.19.19.19h.06v.1h-.01c-.15 0-.29-.01-.44-.01-.12 0-.24.01-.37.01h-.01v-.1h.06c.09 0 .17-.04.17-.13v-1.29c0-.18-.09-.18-.17-.18h-.06v-.1h.01c.08 0 .24.01.4.01.15 0 .27-.01.4-.01.32 0 .62.09.62.46 0 .23-.15.37-.35.45l.43.64c.01.02.02.04.04.06.02.02.04.03.06.05l.06.03c.03 0 .05.01.08.01h.01V17l-.01.01Zm-1.01-.85v.01c.16.28.33.55.52.81.08 0 .16-.01.24-.01.07 0 .16.01.23.01v-.05c-.02 0-.05-.01-.07-.02-.02 0-.05-.01-.07-.03-.02-.01-.04-.03-.06-.05-.01-.02-.03-.04-.04-.06l-.44-.66h.01c.2-.08.35-.21.35-.44 0-.35-.28-.43-.6-.43-.13 0-.25.01-.4.01-.16 0-.3-.01-.39-.01v.05h.04c.07 0 .19.02.19.21v1.28c0 .11-.1.15-.19.15h-.04v.06c.12 0 .24-.01.36-.01.14 0 .29.01.42.01v-.06h-.03c-.12 0-.22-.01-.22-.21v-.55l.02-.01h.17Zm-.17-.07h-.02v-.78h.09c.01 0 .02-.01.03-.01h.04c.05 0 .1.01.15.02.05.02.09.05.13.09.04.03.07.08.08.13.02.04.03.1.03.15 0 .3-.15.4-.41.4h-.12Zm.12-.02c.25 0 .38-.09.38-.39.01-.04 0-.09-.02-.14-.01-.04-.04-.08-.07-.12-.04-.03-.08-.06-.12-.08-.05-.01-.1-.02-.15-.02-.01 0-.02 0-.03.01h-.1v.74h.11Zm2.78-.53c.01-.03 0-.07-.01-.1s-.02-.05-.04-.08c-.02-.02-.05-.04-.08-.05-.03-.01-.06-.01-.09-.01h-.05v-.08c.11 0 .23.01.35.01.12 0 .21-.01.31-.01v.08h-.04c-.1 0-.22.02-.22.32v1.28c0 .02 0 .04.01.07v.06h-.09l-1.31-1.46v1.05c0 .22.04.3.24.3h.04V17c-.11 0-.22-.01-.33-.01-.11 0-.23.01-.34.01v-.08h.03c.18 0 .23-.12.23-.32v-1.07c0-.03 0-.06-.01-.09-.02-.03-.03-.06-.05-.08-.03-.02-.05-.03-.08-.05-.03-.01-.06-.01-.09-.01h-.03v-.08c.1 0 .19.01.29.01.07 0 .15-.01.22-.01l1.14 1.27v-.95Z"/><path fill-rule="evenodd" fill="#1d1d1b" d="M12.14 17.04h-.1l-1.29-1.43v1.01c0 .22.04.29.23.29h.05v.1h-.01c-.11 0-.22-.01-.33-.01-.11 0-.23.01-.34.01h-.01v-.1h.04c.17 0 .22-.11.22-.31v-1.07c0-.03-.01-.06-.02-.09-.01-.02-.02-.05-.04-.07-.03-.02-.05-.03-.08-.05-.02-.01-.05-.01-.08-.01h-.04v-.1h.01c.09 0 .19.01.29.01.07 0 .14-.01.23 0l1.12 1.25v-.93c0-.2-.14-.23-.21-.23h-.07v-.1h.01c.12 0 .24.01.36.01s.21-.01.31-.01h.01v.1h-.04c-.11 0-.22.01-.22.31v1.28c0 .02.01.04.01.06 0 .03 0 .05.01.07v.01h-.02Zm-.01-.02c0-.02 0-.04-.01-.06V15.62c0-.3.13-.33.24-.33h.02v-.05h-.65v.05h.04c.04 0 .07 0 .1.01.03.02.06.04.08.06.02.02.04.05.05.08.01.03.01.07.01.1v.96l-.01.01-1.13-1.27c-.08 0-.15.01-.23.01-.09 0-.19-.01-.28-.01v.05h.02c.04 0 .07.01.1.02s.05.03.08.05c.02.02.04.05.05.08.01.03.02.06.02.09v1.07c0 .2-.06.33-.24.33h-.03v.06c.11 0 .22-.01.33-.01.11 0 .21 0 .32.01v-.06h-.03c-.2 0-.25-.09-.25-.31v-1.07l1.32 1.47h.08Zm.65-.34c-.01.01-.01.03-.02.05 0 .01-.01.03-.01.04 0 .02-.01.04-.01.05 0 .08.11.09.19.09h.03v.08c-.02 0-.05 0-.08-.01H12.65c-.1 0-.18 0-.27.01v-.08h.01c.03 0 .05 0 .08-.01l.06-.03c.02-.02.04-.04.05-.06.02-.02.03-.04.04-.06l.4-1.17c.01-.02.02-.05.03-.07.01-.03.02-.06.03-.08 0-.03.01-.06.02-.08 0-.03.01-.06.02-.08l.06-.03c.02 0 .04-.01.06-.02.01-.01.03-.02.05-.03l.06-.03h.01v-.01h.02v.01h.01v.02l.01.01v.02l.01.01.47 1.33c.03.09.06.18.09.26.01.02.02.03.03.05.01.01.02.02.04.03.01.01.03.02.05.02h.07v.08c-.03 0-.06 0-.09-.01h-.26c-.13 0-.26 0-.39.01v-.08h.03c.06 0 .16-.01.16-.07-.01-.02-.01-.03-.01-.05-.01-.01-.01-.03-.01-.04-.01-.02-.01-.03-.02-.05 0-.01-.01-.03-.01-.04l-.1-.3h-.58l-.08.27c-.01.02-.02.03-.02.05Zm.39-1.17h-.01l-.23.71h.47l-.23-.71Z"/><path fill-rule="evenodd" fill="#1d1d1b" d="M14.15 17c-.12 0-.23-.01-.35-.01-.12 0-.25 0-.38.01h-.02v-.09h.04c.06 0 .15-.02.15-.06 0-.02-.01-.04-.01-.05 0-.02-.01-.03-.01-.05-.01-.01-.01-.03-.02-.04 0-.01-.01-.03-.01-.04l-.1-.29h-.56l-.08.26c0 .01-.01.03-.01.04-.01.02-.02.03-.02.05 0 .02-.01.03-.01.05-.01.01-.01.03-.01.05 0 .06.09.08.18.08h.04V17H12.88c-.03 0-.05 0-.08-.01H12.65c-.1 0-.18 0-.28.01h-.01v-.09h.03c.02 0 .05-.01.07-.02.02 0 .04-.01.06-.03.02-.01.04-.03.05-.05l.03-.06.41-1.17c.01-.02.02-.05.02-.08.01-.02.02-.05.03-.08.01-.02.02-.05.02-.08.01-.02.02-.05.03-.08.02-.01.04-.01.06-.02.02-.01.04-.02.05-.03l.06-.03.06-.03h.04l.01.01c.01.02.01.04.02.06l.47 1.33c.03.09.06.18.1.26 0 .02.01.03.02.04.01.02.02.03.04.04.01 0 .03.01.04.01.02.01.04.01.05.01h.03V17h-.01Zm-.72-.02c.13 0 .25-.01.37-.01s.23.01.34.01v-.05h-.06c-.02-.01-.03-.02-.05-.03-.01-.01-.03-.02-.04-.03-.01-.02-.02-.03-.03-.05-.03-.08-.06-.17-.1-.26l-.46-1.33-.03-.06h-.01c-.02.01-.04.02-.05.03l-.06.03c-.02.01-.04.02-.06.02-.02.01-.04.02-.06.02 0 .03-.01.06-.02.08 0 .03-.01.06-.02.08-.01.03-.01.06-.02.08-.01.03-.02.05-.03.08l-.41 1.17-.03.06c-.02.03-.03.04-.06.06-.02.02-.04.03-.06.04-.03 0-.05.01-.08.01v.05h.07c.02 0 .04 0 .06-.01h.13c.09 0 .2.01.3.01v-.05h-.02c-.08 0-.2-.01-.2-.1 0-.02.01-.04.01-.05.01-.02.01-.04.01-.05.01-.02.01-.04.02-.05.01-.02.01-.04.02-.05l.08-.27h.59l.1.3c.01.01.02.03.02.04.01.02.01.03.02.05 0 .01 0 .03.01.04 0 .02 0 .04.01.05 0 .08-.11.09-.17.09h-.03v.05Zm-.52-.74.24-.75h.02l.25.75h-.51Zm.48-.03-.23-.68-.22.68h.45Zm.64-.63h-.08c.01-.07.02-.14.03-.22 0-.01 0-.03.01-.05v-.16h.07c.02.07.08.07.15.07h1.31c.07 0 .13 0 .13-.08l.07.01-.03.21c-.01.07-.01.14-.01.2l-.07.03c0-.09-.02-.24-.2-.24H15v1.35c0 .19.09.22.21.22h.05v.07c-.1 0-.28-.01-.42-.01-.15 0-.33.01-.43.01v-.07h.05c.14 0 .21-.01.21-.22v-1.35h-.41c-.19 0-.2.04-.23.23Z"/><path fill="#1d1d1b" d="M15.26 17.01c-.1 0-.28-.01-.42-.01-.15 0-.32.01-.42.01h-.02v-.1h.06c.14 0 .2 0 .2-.2v-1.35h-.4v-.02h.43v1.37c0 .2-.09.22-.23.22h-.03v.06c.09 0 .27-.01.41-.01.14 0 .31.01.41.01v-.06h-.04c-.12 0-.22-.03-.22-.23v-1.36h.43c.17 0 .19.14.19.24l.06-.02v-.2c.01-.07.02-.13.03-.19l-.04-.01c-.01.07-.08.08-.15.08h-1.32c-.06 0-.12 0-.14-.08h-.04v.05c0 .02 0 .04-.01.06v.05c0 .01 0 .03-.01.05 0 .07-.02.14-.03.2h.06c.03-.18.05-.23.24-.23v.02c-.19 0-.18.04-.22.22v.01h-.1v-.01c.01-.07.03-.14.03-.21 0-.02.01-.04.01-.06v-.05c.01-.02.01-.04.01-.05V15.14h.08v.01c.02.06.06.06.13.06h1.32c.07 0 .12 0 .12-.07v-.01h.01l.08.01v.02c-.01.01-.01.03-.01.05 0 .01-.01.03-.01.05v.05c-.01.02-.01.03-.01.05-.01.07-.01.14-.01.21l-.09.04v-.02c-.01-.09-.02-.23-.18-.23h-.41v1.34c0 .19.08.2.2.21h.06V17l-.01.01Zm.55-.09h.03c.1 0 .19-.01.19-.15v-1.33c0-.13-.09-.14-.19-.14h-.03v-.08c.09 0 .25.01.37.01.13 0 .28-.01.4-.01v.08h-.03c-.09 0-.19.01-.19.14v1.33c0 .14.1.15.19.15h.03v.07c-.12 0-.27-.01-.4-.01-.12 0-.27.01-.37.01v-.07Z"/><path fill-rule="evenodd" fill="#1d1d1b" d="M16.79 17c-.15 0-.35-.01-.51-.01-.15 0-.34.01-.46.01h-.02v-.09h.06c.12 0 .22-.01.22-.14v-1.33c0-.12-.1-.13-.22-.13h-.06v-.1h.02c.12 0 .31.01.47.01.15 0 .35-.01.5-.01h.01v.1h-.05c-.13 0-.23.01-.23.13v1.33c0 .13.11.14.23.14h.05V17h-.01Zm-.01-.02h-.01.01Zm-.01-.05h-.03c-.12 0-.25-.02-.25-.16v-1.33c0-.14.14-.15.25-.15h.03v-.06c-.15 0-.33.01-.48.01-.15 0-.34-.01-.46-.01v.06h.03c.11 0 .25.01.25.15v1.33c0 .14-.14.16-.25.16h-.03v.05c.12 0 .3-.01.45-.01.16 0 .34.01.49.01v-.05Z"/><path fill-rule="evenodd" fill="#1d1d1b" d="M17.59 15.18c.54 0 .98.34.98.88 0 .13-.02.26-.07.38-.04.12-.11.22-.2.32-.09.09-.2.16-.32.21-.12.04-.25.07-.37.06-.54 0-.95-.36-.95-.91-.01-.12.02-.25.06-.36.05-.11.12-.22.21-.31.08-.08.19-.15.3-.2.12-.04.24-.07.36-.07m.04 1.74c.5 0 .58-.43.58-.8 0-.38-.2-.82-.62-.82-.45 0-.58.39-.58.73 0 .46.21.89.62.89Z"/><path fill-rule="evenodd" fill="#1d1d1b" d="M16.65 16.12c0-.12.02-.25.07-.36.04-.12.11-.22.2-.31.09-.09.2-.16.31-.21.12-.04.24-.07.37-.07v.03c-.13 0-.25.02-.36.06-.11.05-.22.12-.3.2-.09.09-.16.19-.2.31-.05.11-.07.23-.07.35 0 .54.41.9.94.9.13.01.25-.02.37-.06.12-.05.22-.12.31-.21s.16-.2.21-.32c.04-.12.06-.24.06-.37 0-.53-.43-.86-.96-.86v-.03c.54 0 .98.34.98.89.01.13-.02.26-.06.38-.05.12-.12.23-.21.32-.09.1-.2.17-.32.22-.12.05-.25.07-.38.06-.54 0-.96-.37-.96-.92m.35-.09c0-.34.14-.75.59-.75.43 0 .63.46.63.84 0 .37-.08.81-.59.81-.42 0-.63-.44-.63-.9Zm1.2.09c0-.37-.2-.81-.61-.81-.43 0-.56.38-.57.72 0 .46.21.88.61.88.48 0 .57-.42.57-.79Zm2.08.37Zm0 0v-.95c.01-.03.01-.07 0-.1s-.03-.05-.05-.08c-.02-.02-.05-.04-.08-.05-.03-.01-.06-.01-.09-.01h-.05v-.08c.12 0 .23.01.35.01.12 0 .21-.01.32-.01v.08h-.04c-.11 0-.23.02-.23.32v1.22c0 .02 0 .04.01.06v.07c0 .02.01.04.01.06h-.1l-1.31-1.46v1.05c0 .22.05.3.24.3h.05V17c-.11 0-.22-.01-.33-.01-.11 0-.23.01-.35.01v-.08h.04c.17 0 .23-.12.23-.32v-1.07c0-.03-.01-.06-.02-.09s-.03-.06-.05-.08c-.02-.02-.05-.03-.07-.05-.03-.01-.06-.01-.09-.01h-.04v-.08c.1 0 .2.01.29.01.08 0 .15-.01.23-.01l1.13 1.27Z"/><path fill-rule="evenodd" fill="#1d1d1b" d="M20.43 17.04h-.11l-1.29-1.43v1.01c0 .22.04.29.23.29h.05v.1h-.01c-.11 0-.22-.01-.32-.01-.11 0-.24.01-.35.01h-.01v-.1h.05c.17 0 .21-.11.22-.31v-1.07c0-.03-.01-.06-.02-.09-.01-.02-.03-.05-.05-.07-.02-.02-.04-.03-.07-.05-.03-.01-.06-.01-.08-.01h-.05v-.1h.01c.1 0 .2.01.29.01.08 0 .15-.01.23 0l1.12 1.25v-.93c0-.2-.14-.23-.21-.23h-.07v-.1H20c.12 0 .24.01.36.01.1 0 .21-.01.31-.01h.01v.1h-.04c-.11 0-.21.01-.22.31v1.15c0 .09.01.17.02.26v.01h-.01Zm-.1-.02h.08v-.06c-.01-.02-.01-.04-.01-.06V15.62c0-.3.13-.33.24-.33h.02v-.05h-.64v.05h.04c.03 0 .07 0 .1.01.03.02.05.04.08.06.02.02.04.05.05.08.01.03.01.07 0 .1v.97l-1.13-1.27c-.08 0-.15.01-.23.01-.1 0-.19-.01-.28-.01v.05h.02c.03 0 .06.01.09.02s.06.03.08.05c.02.02.04.05.05.08.02.03.02.06.02.09v1.07c0 .2-.05.33-.24.33h-.02v.06c.11 0 .22-.01.33-.01.11 0 .21 0 .32.01v-.06h-.03c-.2 0-.25-.09-.25-.31v-1.07l1.31 1.47Zm.74-.34c-.01.01-.02.03-.02.05 0 .01-.01.03-.01.04-.01.02-.01.04-.01.05 0 .08.1.09.19.09h.03v.08c-.03 0-.05 0-.08-.01H20.94c-.1 0-.18 0-.27.01v-.08h.01c.03 0 .05 0 .07-.01.03-.01.05-.02.07-.03.02-.02.04-.04.05-.06l.03-.06.41-1.16c.01-.03.02-.05.03-.08.01-.03.02-.05.03-.08 0-.02.01-.05.02-.08 0-.02.01-.05.02-.08.02 0 .04-.01.06-.02l.06-.03c.02-.01.03-.02.05-.03l.06-.03h.02c.01 0 .01 0 .02.01 0 0 .01.04.02.06l.47 1.33c.03.09.06.18.09.26.01.01.02.03.03.04.01.01.02.03.04.04.01 0 .03.01.05.01.02.01.03.01.05.01h.02v.07h-.18c-.03 0-.06 0-.09-.01h-.08c-.13 0-.26 0-.39.01v-.07h.03c.06 0 .16-.01.16-.08-.01-.01-.01-.03-.01-.04-.01-.02-.01-.03-.01-.05-.01-.01-.01-.03-.02-.04 0-.02-.01-.03-.01-.05l-.1-.29h-.58l-.09.26c0 .02-.01.03-.01.05Zm.38-1.17-.23.71h.47l-.24-.71Z"/><path fill-rule="evenodd" fill="#1d1d1b" d="M22.09 16.99c-.13 0-.26.01-.39.01v-.09h.03c.06 0 .15-.02.15-.06 0-.02 0-.04-.01-.05 0-.02 0-.03-.01-.05 0-.01-.01-.03-.01-.04-.01-.01-.01-.03-.02-.04l-.1-.29h-.56l-.08.26c0 .01-.01.03-.01.04-.01.02-.01.03-.02.05 0 .02-.01.03-.01.05 0 .01-.01.03-.01.05 0 .06.1.08.18.08h.04V17h-.01c-.11 0-.21-.01-.31-.01s-.18.01-.27.01h-.02v-.09h.03c.02 0 .05-.01.07-.02.02 0 .04-.01.06-.03.02-.01.04-.03.05-.05l.03-.06.41-1.17c.03-.09.08-.22.09-.32.02-.01.04-.01.06-.02l.06-.03.06-.03c.02-.01.04-.02.05-.03h.05c0 .01.01.01.01.01l.02.06.47 1.33c.03.09.06.18.09.26.01.02.02.03.03.04.01.02.02.03.03.04.02 0 .03.01.05.01.02.01.03.01.05.01h.02V17c-.12 0-.23-.01-.35-.01Zm-.37-.01Zm.37-.01c.12 0 .22.01.33.01v-.05h-.06c-.01-.01-.03-.02-.05-.03-.01-.01-.03-.02-.04-.03-.01-.02-.02-.03-.03-.05-.03-.08-.06-.17-.09-.26l-.47-1.33-.02-.06h-.02l-.06.03c-.02.01-.03.02-.05.03l-.06.03c-.02 0-.04.01-.06.02-.01.02-.02.05-.02.08-.01.02-.02.05-.03.08 0 .02-.01.05-.02.08-.01.02-.02.05-.03.07l-.41 1.17c0 .02-.01.05-.03.07-.01.02-.03.04-.05.05-.02.02-.05.03-.07.04-.03.01-.05.01-.08.01v.06c.03-.01.05-.01.07-.01h.2c.08 0 .19 0 .29.01v-.06h-.01c-.09 0-.2-.01-.21-.1.01-.02.01-.03.01-.05.01-.02.01-.03.02-.05 0-.02.01-.03.01-.05.01-.02.01-.03.02-.05l.08-.27h.6l.1.3c0 .02.01.03.01.05.01.01.01.03.02.04 0 .02.01.03.01.05 0 .02.01.03.01.05 0 .08-.11.08-.17.08h-.02l.01.05c.12 0 .24-.01.37-.01Zm-.89-.73.24-.75h.02l.24.75h-.5Zm.03-.03h.44l-.22-.68-.22.68Zm2 .68c.11.01.22 0 .33-.01.03 0 .05-.01.07-.01.03-.01.05-.02.07-.03.02-.01.04-.03.06-.04.02-.02.03-.04.05-.06.01-.01.01-.02.02-.04.01-.01.02-.03.02-.04.01-.02.02-.03.02-.05.01-.02.01-.03.02-.05h.07c-.03.15-.07.29-.1.43-.22 0-.44-.01-.67-.01-.23 0-.45.01-.67.01v-.07h.04c.1 0 .19-.01.19-.17v-1.31c0-.13-.09-.14-.19-.14h-.03v-.08c.13 0 .26.01.4.01.13 0 .25-.01.38-.01v.08h-.06c-.1 0-.18 0-.18.13l.01 1.31c0 .11.07.14.15.15Z"/><path fill-rule="evenodd" fill="#1d1d1b" d="M23.19 16.99c-.22 0-.44.01-.67.01h-.01v-.09h.05c.1 0 .18-.01.18-.16v-1.31c0-.12-.09-.13-.18-.13h-.05v-.1h.01c.14 0 .27.01.41.01.13 0 .25-.01.38-.01h.01v.1h-.07c-.1 0-.16 0-.17.12v1.31c0 .1.07.12.15.14h.14c.06 0 .13 0 .19-.01.02 0 .05-.01.07-.01l.06-.03c.02-.01.04-.03.06-.04l.05-.05c0-.01.01-.03.02-.04.01-.02.02-.03.02-.05.01-.01.01-.03.02-.04 0-.02.01-.03.01-.05v-.01h.1v.01c-.03.15-.07.29-.1.44-.23 0-.45-.01-.68-.01Zm.67-.01Zm.08-.41h-.05c0 .02-.01.03-.01.05-.01.02-.01.03-.02.05 0 .01-.01.02-.02.04-.01.01-.02.03-.02.04-.02.02-.04.04-.06.05-.02.02-.04.03-.06.05l-.06.03c-.03 0-.05.01-.08.01-.01 0-.03.01-.04.01H23.23c-.08-.01-.16-.05-.16-.16v-1.31c0-.14.09-.14.18-.14h.05v-.06c-.12 0-.25.01-.37.01-.13 0-.26-.01-.39-.01v.06h.02c.09 0 .2.01.2.15v1.31c0 .16-.11.18-.2.18h-.02v.05c.22 0 .44-.01.66-.01.22 0 .44.01.66.01.02-.14.06-.27.08-.41Zm.56-1.15c.07.16.03.35-.09.48-.13.12-.31.16-.48.09-.16-.06-.27-.22-.27-.4 0-.06.01-.12.03-.17.02-.05.06-.1.1-.14.04-.04.09-.08.14-.1.05-.02.11-.03.17-.03.18 0 .33.11.4.27Zm-.4.53c.14 0 .28-.09.34-.22.05-.13.03-.29-.08-.39-.1-.11-.25-.14-.39-.08-.13.05-.22.18-.22.33 0 .05.01.09.03.13.01.05.04.09.07.12.03.03.07.06.11.08.05.01.09.02.14.03Zm-.22-.13v-.02c.05 0 .06 0 .06-.04v-.33c0-.04 0-.06-.06-.05v-.02h.23c.07 0 .14.04.14.12v.04c-.01.01-.02.03-.03.04 0 .01-.02.02-.03.03-.01.01-.03.01-.04.02l.07.1c.01.01.02.02.02.03.01 0 .02.01.03.02.01.01.01.02.02.03.01.01.02.01.03.02v.02h-.09c-.04 0-.07-.09-.15-.21h-.05v.15c0 .03.01.03.06.03v.03l-.21-.01Zm.15-.23h.05c.06 0 .08-.04.08-.11v-.04c0-.01-.01-.02-.02-.03-.01-.01-.02-.02-.03-.02-.01-.01-.02-.01-.03-.01h-.05v.21Z"/><path fill="#ffffff" d="M8.07 6.26c0-2.37 1.93-4.3 4.3-4.3 2.38 0 4.3 1.92 4.3 4.3 0 2.37-1.92 4.3-4.29 4.3-.57 0-1.13-.11-1.65-.33-.52-.21-1-.53-1.4-.93-.4-.4-.71-.87-.93-1.39-.22-.53-.33-1.09-.33-1.65Z"/><path fill-rule="evenodd" fill="#0064a7" d="M12.38 10.64c-2.47.01-4.5-1.99-4.5-4.42.01-2.65 2.03-4.49 4.5-4.49h1.15c2.43 0 4.66 1.83 4.66 4.49 0 2.43-2.23 4.42-4.66 4.42h-1.15Zm.01-8.54c-2.26 0-4.08 1.82-4.08 4.08 0 2.25 1.82 4.07 4.08 4.07 2.25 0 4.07-1.82 4.07-4.07S14.64 2.1 12.39 2.1Zm-.93 6.49c-.49-.19-.9-.52-1.2-.95-.3-.43-.45-.94-.45-1.46 0-.53.15-1.04.45-1.47.3-.43.71-.76 1.2-.95v4.83Zm3.51-2.41c0 .26-.04.51-.12.76-.07.25-.19.48-.34.7-.14.21-.32.4-.53.56-.2.17-.43.29-.67.39V3.76c.24.1.47.23.67.39.21.16.39.35.53.56.15.22.27.45.34.7.08.25.12.51.12.77Z"/></svg>
