<svg xmlns="http://www.w3.org/2000/svg" fill="none" viewBox="0 0 539 267"><mask id="a" width="539" height="267" x="0" y="0" maskUnits="userSpaceOnUse" style="mask-type:alpha"><path fill="#080F2C" d="M0 0h539v267H0z"/></mask><g mask="url(#a)"><circle cx="211.322" cy="211.322" r="210.822" stroke="url(#b)" transform="matrix(1 0 0 -1 4.676 422.645)"/><circle cx="211.322" cy="211.322" r="210.822" stroke="url(#c)" transform="matrix(1 0 0 -1 29.344 422.645)"/><circle cx="211.322" cy="211.322" r="210.822" stroke="url(#d)" transform="matrix(1 0 0 -1 54.012 422.645)"/><circle cx="211.322" cy="211.322" r="210.822" stroke="url(#e)" transform="matrix(1 0 0 -1 78.68 422.645)"/><circle cx="211.322" cy="211.322" r="210.822" stroke="url(#f)" transform="matrix(1 0 0 -1 103.348 422.645)"/><circle cx="211.322" cy="211.322" r="210.822" stroke="url(#g)" transform="matrix(1 0 0 -1 128.016 422.645)"/><circle cx="211.322" cy="211.322" r="210.822" stroke="url(#h)" transform="matrix(1 0 0 -1 152.684 422.645)"/><circle cx="211.322" cy="211.322" r="210.822" stroke="url(#i)" transform="matrix(1 0 0 -1 177.352 422.645)"/><circle cx="211.322" cy="211.322" r="210.822" stroke="url(#j)" transform="matrix(1 0 0 -1 202.02 422.645)"/><circle cx="211.322" cy="211.322" r="210.822" stroke="url(#k)" transform="matrix(1 0 0 -1 226.688 422.645)"/><circle cx="211.322" cy="211.322" r="210.822" stroke="url(#l)" transform="matrix(1 0 0 -1 251.355 422.645)"/></g><defs><linearGradient id="b" x1="39.916" x2="348.095" y1="247.717" y2="174.928" gradientUnits="userSpaceOnUse"><stop stop-color="#F83F46"/><stop offset=".635" stop-color="#3B38BB"/><stop offset="1" stop-color="#090E23"/></linearGradient><linearGradient id="c" x1="39.916" x2="348.095" y1="247.717" y2="174.928" gradientUnits="userSpaceOnUse"><stop stop-color="#F83F46"/><stop offset=".635" stop-color="#3B38BB"/><stop offset="1" stop-color="#090E23"/></linearGradient><linearGradient id="d" x1="39.916" x2="348.095" y1="247.717" y2="174.928" gradientUnits="userSpaceOnUse"><stop stop-color="#F83F46"/><stop offset=".635" stop-color="#3B38BB"/><stop offset="1" stop-color="#090E23"/></linearGradient><linearGradient id="e" x1="39.916" x2="348.095" y1="247.717" y2="174.928" gradientUnits="userSpaceOnUse"><stop stop-color="#F83F46"/><stop offset=".635" stop-color="#3B38BB"/><stop offset="1" stop-color="#090E23"/></linearGradient><linearGradient id="f" x1="39.916" x2="348.095" y1="247.717" y2="174.928" gradientUnits="userSpaceOnUse"><stop stop-color="#F83F46"/><stop offset=".635" stop-color="#3B38BB"/><stop offset="1" stop-color="#090E23"/></linearGradient><linearGradient id="g" x1="39.916" x2="348.095" y1="247.717" y2="174.928" gradientUnits="userSpaceOnUse"><stop stop-color="#F83F46"/><stop offset=".635" stop-color="#3B38BB"/><stop offset="1" stop-color="#090E23"/></linearGradient><linearGradient id="h" x1="39.916" x2="348.095" y1="247.717" y2="174.928" gradientUnits="userSpaceOnUse"><stop stop-color="#F83F46"/><stop offset=".635" stop-color="#3B38BB"/><stop offset="1" stop-color="#090E23"/></linearGradient><linearGradient id="i" x1="39.916" x2="348.095" y1="247.717" y2="174.928" gradientUnits="userSpaceOnUse"><stop stop-color="#F83F46"/><stop offset=".635" stop-color="#3B38BB"/><stop offset="1" stop-color="#090E23"/></linearGradient><linearGradient id="j" x1="39.916" x2="348.095" y1="247.717" y2="174.928" gradientUnits="userSpaceOnUse"><stop stop-color="#F83F46"/><stop offset=".635" stop-color="#3B38BB"/><stop offset="1" stop-color="#090E23"/></linearGradient><linearGradient id="k" x1="39.916" x2="348.095" y1="247.717" y2="174.928" gradientUnits="userSpaceOnUse"><stop stop-color="#F83F46"/><stop offset=".635" stop-color="#3B38BB"/><stop offset="1" stop-color="#090E23"/></linearGradient><linearGradient id="l" x1="39.916" x2="348.095" y1="247.717" y2="174.928" gradientUnits="userSpaceOnUse"><stop stop-color="#F83F46"/><stop offset=".635" stop-color="#3B38BB"/><stop offset="1" stop-color="#090E23"/></linearGradient></defs></svg>