<svg xmlns="http://www.w3.org/2000/svg" width="58" height="14" viewBox="0 0 58 14"><path d="M17.7055 10.6294V7.8396c0-1.0942.493-1.7195 1.5753-1.7195.1443 0 .3006.012.457.036V4.7372a1.9973 1.9973 0 00-.3728-.036c-.7696 0-1.419.3727-1.6956 1.01v-.938h-1.3588v5.8562h1.395zm3.383-7.0105c.505 0 .914-.3968.914-.9019a.9135.9135 0 00-.914-.9139c-.493 0-.9018.4089-.9018.914 0 .505.4088.9018.9018.9018zm.6975 7.0105V4.7733H20.403v5.8561h1.3829zm2.6976 0v-3.379c0-.7696.4208-1.3829 1.2145-1.3829.8778 0 1.2025.5772 1.2025 1.2987v3.4632h1.3949V6.9257c0-1.2866-.6855-2.3208-2.1164-2.3208-.6494 0-1.3468.2766-1.7316.95v-.7816h-1.3588v5.8561h1.3949zm7.3753 2.4651c2.2005 0 3.0062-1.455 3.0062-3.0182v-5.303h-1.3468v.7455c-.2525-.481-.8177-.8538-1.7316-.8538-1.6113 0-2.7056 1.2867-2.7056 2.85 0 1.6474 1.1424 2.8499 2.7056 2.8499.8538 0 1.443-.3969 1.6955-.8538v.6133c0 1.1904-.5531 1.7556-1.6594 1.7556-.8057 0-1.3709-.5411-1.467-1.2626l-1.2867.3367c.1563 1.1784 1.2385 2.1404 2.7898 2.1404zm.1563-3.9201c-.914 0-1.5272-.6373-1.5272-1.6594 0-.9981.6373-1.6475 1.5272-1.6475.8658 0 1.503.6494 1.503 1.6475 0 1.01-.6132 1.6594-1.503 1.6594zm6.6297 1.6354c1.7557 0 3.0423-1.3107 3.0423-3.1145 0-1.7917-1.2866-3.1024-3.0423-3.1024-1.7436 0-3.0303 1.3107-3.0303 3.1024 0 1.8038 1.2867 3.1145 3.0303 3.1145zm0-1.2506c-.8538 0-1.6354-.6494-1.6354-1.8639s.7816-1.8398 1.6354-1.8398c.8658 0 1.6354.6253 1.6354 1.8398 0 1.2266-.7696 1.8639-1.6354 1.8639zm6.702 1.0702l2.2967-5.8561h-1.467l-1.5152 4.1846-1.5512-4.1846H41.571l2.381 5.8561h1.3948zm5.1746.1804c1.407 0 2.3329-.8297 2.6455-1.8519l-1.1784-.3727c-.1924.5772-.6253 1.022-1.467 1.022-.8659 0-1.5633-.6372-1.5994-1.527h4.2809c.012-.0241.036-.2165.036-.445 0-1.8518-1.0581-3.0423-2.8619-3.0423-1.479 0-2.8499 1.2265-2.8499 3.0784 0 1.984 1.407 3.1385 2.9942 3.1385zm1.3108-3.7518h-2.874c.048-.6253.5531-1.2987 1.431-1.2987.962 0 1.4189.6133 1.443 1.2987zm3.6355 3.5714V7.8396c0-1.0942.493-1.7195 1.5753-1.7195.1443 0 .3006.012.4569.036V4.7372a1.9973 1.9973 0 00-.3728-.036c-.7696 0-1.419.3727-1.6955 1.01v-.938H54.073v5.8562h1.3949zM6.788 13.345c-3.1595 0-5.64-2.1166-6.2004-5.1848a10.4055 10.4055 0 01-.0294-.1729l3.1307.0001c.0137.0461.0242.0806.0315.1032.4642 1.4403 1.725 2.185 3.0676 2.185 1.3449 0 2.6075-.7316 3.0698-2.1826a5.2479 5.2479 0 00.0319-.1057h3.128a10.4148 10.4148 0 01-.0242.1446c-.5503 3.0835-3.0363 5.2131-6.2055 5.2131zM6.788.3c3.3047 0 5.8666 2.2946 6.2654 5.6085.0057.0475.0132.1192.0227.2151H9.9914a5.92 5.92 0 00-.0208-.1218c-.327-1.7495-1.7051-2.6324-3.1825-2.6324-1.4605 0-2.824.8628-3.1709 2.5727a5.8767 5.8767 0 00-.0324.1815H.5c.0136-.1346.0248-.2351.0336-.3015C.9662 2.5547 3.5122.3 6.7881.3z"/></svg>
