<svg width="70" height="17" xmlns="http://www.w3.org/2000/svg"><g fill="#FFF" fill-rule="nonzero"><path d="M23.665 13.862l.279-.003.87-.033v-1.372a4.992 4.992 0 01-.361.013c-.374 0-.597-.035-.67-.106-.073-.071-.11-.25-.11-.538V8.112h1.14V6.804h-1.14V4.846h-1.817v1.958h-.979v1.308h.98v4.323c0 .438.102.762.309.973.317.33.91.48 1.778.45l-.28.004zm4.153-.1v-3.357c0-.562.07-.979.213-1.25.253-.48.75-.721 1.488-.721a4.809 4.809 0 01.528.032V6.585a5.505 5.505 0 01-.158-.01.985.985 0 00-.087-.003c-.55 0-.996.144-1.34.432-.21.172-.457.492-.74.96V6.74h-1.753v7.022h1.849zm5.021.22c.498 0 .945-.115 1.34-.342.33-.194.623-.428.876-.703.013.16.03.301.052.426.021.124.06.257.116.4h1.997v-.272a.658.658 0 01-.27-.212c-.06-.086-.097-.25-.11-.49a30.756 30.756 0 01-.013-.812v-3.22c0-.847-.299-1.422-.896-1.727-.597-.305-1.28-.458-2.048-.458-1.181 0-2.015.31-2.5.928-.305.395-.477.9-.515 1.514h1.771c.043-.27.13-.485.258-.644.18-.215.488-.323.921-.323.387 0 .68.055.88.165.2.11.3.308.3.596 0 .236-.132.41-.394.522-.146.064-.388.118-.728.16l-.625.078c-.708.09-1.245.24-1.61.45-.666.387-.999 1.012-.999 1.876 0 .665.207 1.18.622 1.543.414.363.94.544 1.575.544zm.541-1.335c-.249 0-.46-.07-.634-.209-.174-.14-.261-.366-.261-.68 0-.352.141-.612.425-.78.167-.098.444-.182.831-.25l.412-.078c.206-.038.369-.08.487-.125s.235-.105.35-.178v.683c-.012.615-.185 1.038-.518 1.27a1.87 1.87 0 01-1.092.347zm6.915 1.115V9.961c0-.434.06-.79.18-1.07.233-.528.66-.792 1.283-.792.507 0 .85.18 1.03.541.1.198.149.481.149.85v4.272h1.881V9.033c0-.88-.23-1.51-.693-1.89-.461-.38-1.055-.57-1.78-.57-.58 0-1.06.14-1.438.424-.21.16-.433.42-.67.78V6.753h-1.771v7.01h1.83zm9.016.238c1.082 0 1.882-.22 2.4-.66.517-.44.776-1.008.776-1.704 0-.528-.18-.969-.541-1.32-.365-.349-.913-.608-1.643-.78-1.095-.24-1.733-.41-1.914-.51a.48.48 0 01-.27-.457c0-.167.085-.313.254-.438.17-.124.455-.187.854-.187.485 0 .829.125 1.03.374.108.138.175.324.2.56h1.837c-.082-.858-.399-1.463-.95-1.813-.552-.35-1.267-.525-2.143-.525-.923 0-1.64.233-2.148.699-.51.466-.764 1.023-.764 1.672 0 .55.163.97.49 1.263.326.296.887.543 1.681.74 1.104.262 1.742.447 1.914.554a.521.521 0 01.258.47c0 .216-.107.377-.32.484-.212.107-.499.161-.86.161-.614 0-1.035-.122-1.262-.367-.13-.138-.213-.37-.251-.696h-1.862c0 .722.263 1.315.789 1.781.526.466 1.341.7 2.445.7zm6.664-.238V8.1h1.204V6.804h-1.204v-.593c0-.137.046-.263.138-.377.093-.113.26-.167.503-.16.242.006.415.015.518.028V4.208a38.287 38.287 0 00-.386-.03c-.095-.006-.2-.009-.316-.009-1.018 0-1.66.21-1.926.631-.254.284-.38.801-.38 1.553v.451H53.12V8.1h1.024v5.663h1.83zm5.092.232c1.082 0 1.924-.341 2.525-1.024.387-.43.604-.853.65-1.27h-1.874a1.53 1.53 0 01-.341.484c-.237.214-.544.322-.922.322-.356 0-.661-.088-.915-.264-.416-.284-.637-.778-.663-1.482h4.806c.009-.606-.01-1.07-.058-1.392a3.539 3.539 0 00-.535-1.45 2.765 2.765 0 00-1.16-1.037 3.68 3.68 0 00-1.578-.328c-.983 0-1.783.324-2.4.973-.616.648-.924 1.58-.924 2.796 0 1.297.341 2.233 1.024 2.809a3.561 3.561 0 002.365.863zm1.359-4.445h-2.854c.06-.456.207-.816.441-1.083.234-.266.564-.4.99-.4.39 0 .717.126.982.378.264.251.41.62.441 1.105zm4.97 4.213v-3.357c0-.562.07-.979.212-1.25.253-.48.75-.721 1.488-.721a4.809 4.809 0 01.529.032V6.585a5.505 5.505 0 01-.158-.01.985.985 0 00-.087-.003c-.55 0-.997.144-1.34.432-.21.172-.458.492-.741.96V6.74h-1.753v7.022h1.85zM14.987 14.126H.319a.32.32 0 00-.319.32v1.275a.32.32 0 00.319.319h14.668a.32.32 0 00.319-.32v-1.275a.32.32 0 00-.32-.319zM3.508 13.489a.32.32 0 00.318-.32V6.794a.319.319 0 00-.318-.32H1.594a.319.319 0 00-.319.32v6.377a.32.32 0 00.32.319h1.913zM13.711 13.489a.32.32 0 00.32-.32V6.794a.32.32 0 00-.32-.32h-1.913a.32.32 0 00-.319.32v6.377a.32.32 0 00.319.319h1.913zM8.61 13.489a.32.32 0 00.318-.32V6.794a.32.32 0 00-.319-.32H6.696a.32.32 0 00-.319.32v6.377a.32.32 0 00.32.319h1.912zM15.13 4.01L7.796.343a.32.32 0 00-.285 0L.177 4.01A.318.318 0 000 4.295v1.222c0 .176.143.319.319.319h14.667a.32.32 0 00.32-.319V4.295a.32.32 0 00-.176-.285z"/></g></svg>
