<svg xmlns="http://www.w3.org/2000/svg" width="109" height="28" viewBox="0 0 109 28"><g fill="none"><path fill="#161615" d="M29.2604 9.4248H40.194v2.0399h-4.299v11.4672h-2.364V11.4647h-4.28v-2.04h.0095zm10.4664 3.727h2.0208v1.8874h.0381c.0668-.2669.1907-.5242.3718-.772.1811-.248.4003-.4862.6577-.6864.2574-.2097.5434-.3717.858-.5052.3145-.124.6386-.1906.9627-.1906.2478 0 .429.0095.5242.019.0954.0096.1907.0286.2955.0382v2.078c-.1525-.0286-.305-.0477-.467-.0668a3.9594 3.9594 0 00-.4671-.0285c-.3622 0-.7054.0762-1.0295.2192-.324.143-.6005.3622-.8388.6387-.2383.286-.429.629-.572 1.0485-.143.4194-.2097.896-.2097 1.4394v4.6517h-2.1543v-9.7705h.0096zm15.6328 9.7801h-2.1161v-1.363h-.0382c-.2669.4956-.6577.8864-1.182 1.1819-.5242.2955-1.058.448-1.6014.448-1.2868 0-2.221-.3145-2.793-.9532-.5718-.6387-.8578-1.6014-.8578-2.8883V13.152h2.1543v5.9957c0 .858.162 1.468.4956 1.8207.3241.3527.7912.5338 1.3822.5338.4576 0 .8293-.0667 1.1343-.2097.305-.143.553-.3241.734-.5624.1907-.2288.3241-.5148.41-.8389.0857-.324.1238-.6768.1238-1.058v-5.6717h2.1543v9.7705zm3.67-3.136c.0666.629.305 1.0675.7148 1.3249.4194.2478.9151.3813 1.4966.3813.2002 0 .429-.019.6863-.0477.2574-.0286.5052-.0953.7245-.181.2287-.0859.4098-.2193.5624-.391.143-.1715.2097-.3907.2001-.6672-.0095-.2764-.1144-.5052-.305-.6768-.1906-.181-.429-.3145-.7244-.4289a7.2717 7.2717 0 00-1.0105-.2764c-.3813-.0763-.7625-.162-1.1534-.2479-.4003-.0858-.7911-.2002-1.1629-.324-.3717-.124-.7054-.2956-1.0009-.5148-.2955-.2097-.5338-.4862-.7054-.8198-.181-.3336-.2669-.7435-.2669-1.2392 0-.5338.1335-.9723.3909-1.3345.2573-.3622.591-.6482.9818-.8674.4003-.2193.8388-.3718 1.325-.467.4861-.0859.9532-.1335 1.3917-.1335.5052 0 .9913.0572 1.4489.162.4575.1049.877.2764 1.2487.5243.3717.2383.6768.5528.9246.9341.2478.3813.4004.8484.467 1.3917H63.014c-.1049-.5147-.3336-.8674-.7054-1.039-.3718-.181-.8007-.2669-1.2773-.2669-.1525 0-.3336.0096-.5434.0382a2.974 2.974 0 00-.591.143c-.181.0667-.3336.1715-.467.305-.124.1334-.1907.305-.1907.5242 0 .267.0953.4767.2765.6387.181.162.4194.2955.7149.4099a7.2717 7.2717 0 001.0104.2764c.3813.0763.7721.162 1.1725.2479.3908.0857.772.2001 1.1533.324.3813.124.715.2955 1.0105.5148.2955.2192.5338.4861.7149.8102.181.3241.2764.734.2764 1.2106 0 .5815-.1334 1.0676-.4003 1.4775-.267.4004-.6101.734-1.0295.9818-.4194.2479-.896.4385-1.4108.5529-.5147.1144-1.0295.1716-1.5347.1716-.6196 0-1.1915-.0667-1.7158-.2097-.5242-.143-.9818-.3527-1.363-.6292-.3814-.286-.6864-.6386-.9056-1.058-.2193-.4194-.3337-.9247-.3527-1.5061h2.1733v-.019zm7.111-6.644h1.63v-2.936h2.1542v2.936h1.9446v1.6109h-1.9446v5.2237c0 .2287.0096.4194.0286.591.0191.162.0668.305.1335.4194.0667.1144.1716.2002.3145.2573.143.0572.3241.0858.572.0858.1525 0 .305 0 .4575-.0095.1525-.0095.305-.0286.4576-.0667v1.6681c-.2383.0286-.4766.0477-.6959.0763-.2288.0286-.4575.0381-.6958.0381-.572 0-1.0295-.0572-1.3727-.162-.3431-.1049-.6196-.267-.8102-.4767-.2002-.2097-.3241-.467-.4004-.7816a5.8769 5.8769 0 01-.1239-1.0771v-5.767h-1.63v-1.63h-.019zm7.254 0h2.0399v1.325h.038c.3051-.572.7245-.9723 1.2679-1.2202.5433-.2478 1.1248-.3717 1.7634-.3717.7721 0 1.4394.1334 2.0113.4098.572.267 1.0486.6387 1.4299 1.1153.3812.4766.6577 1.0295.8483 1.6586.1907.6291.286 1.306.286 2.0208 0 .6578-.0858 1.2964-.2574 1.9065-.1716.6196-.429 1.163-.772 1.6395-.3432.4766-.7817.8484-1.3155 1.1344-.5338.286-1.1534.429-1.8779.429a5.2654 5.2654 0 01-.9437-.0859 4.154 4.154 0 01-.9055-.2764c-.286-.124-.5624-.286-.8007-.4862-.2479-.2001-.448-.4289-.6196-.6863h-.0382v4.8805h-2.1542V13.152zm7.5304 4.8995a4.869 4.869 0 00-.1716-1.2868c-.1144-.4194-.286-.7817-.5147-1.1058a2.6228 2.6228 0 00-.8484-.772c-.3431-.1907-.734-.2956-1.1724-.2956-.9056 0-1.592.3146-2.0495.9437s-.6863 1.468-.6863 2.5165c0 .4957.0572.9532.1811 1.3727.124.4194.2955.7816.5434 1.0866.2383.305.5242.5434.8579.715.3336.181.7244.2668 1.1629.2668.4957 0 .9056-.1048 1.2487-.305.3432-.2002.6196-.467.8389-.7816.2192-.3241.3812-.6863.4766-1.0962.0858-.41.1334-.8293.1334-1.2583zm3.8034-8.6266h2.1542v2.0399h-2.1542v-2.04zm0 3.727h2.1542v9.7801h-2.1542v-9.78zm4.0798-3.727h2.1542v13.5071h-2.1542V9.4248zm8.76 13.774c-.7816 0-1.4774-.1334-2.0875-.3908-.61-.2574-1.1248-.6196-1.5537-1.0676-.4195-.4576-.7436-1.0009-.9628-1.63-.2192-.6291-.3336-1.325-.3336-2.078 0-.7436.1144-1.4299.3336-2.059.2192-.6291.5433-1.1725.9628-1.63.4194-.4576.9436-.8103 1.5537-1.0676.61-.2574 1.306-.3908 2.0876-.3908.7816 0 1.4775.1334 2.0875.3908.61.2573 1.1248.6196 1.5538 1.0676.4194.4575.7435 1.0009.9627 1.63.2193.6291.3336 1.3154.3336 2.059 0 .753-.1143 1.4489-.3336 2.078-.2192.6291-.5433 1.1724-.9627 1.63-.4195.4575-.9437.8102-1.5538 1.0676-.61.2574-1.3059.3908-2.0875.3908zm0-1.7063c.4767 0 .896-.1048 1.2488-.305.3527-.2002.6386-.467.8674-.7912.2288-.324.3908-.6958.5052-1.1057.1049-.4099.162-.8293.162-1.2582 0-.4195-.0571-.8293-.162-1.2488-.1048-.4194-.2764-.7816-.5052-1.1057-.2288-.3241-.5147-.5815-.8674-.7816-.3527-.2002-.7721-.305-1.2487-.305-.4767 0-.896.1048-1.2488.305-.3527.2001-.6386.467-.8674.7816-.2288.324-.3908.6863-.5052 1.1057-.1049.4195-.162.8293-.162 1.2488 0 .4289.0571.8483.162 1.2582.1049.4099.2764.7816.5052 1.1057.2288.3241.5147.591.8674.7912.3527.2097.7721.305 1.2488.305zm5.5669-8.3406h1.63v-2.936h2.1543v2.936h1.9445v1.6109h-1.9445v5.2237c0 .2287.0095.4194.0286.591.019.162.0667.305.1334.4194s.1716.2002.3146.2573c.143.0572.324.0858.572.0858.1524 0 .305 0 .4575-.0095.1525-.0095.305-.0286.4575-.0667v1.6681c-.2383.0286-.4766.0477-.6959.0763-.2287.0286-.4575.0381-.6958.0381-.572 0-1.0295-.0572-1.3726-.162-.3432-.1049-.6196-.267-.8103-.4767-.2002-.2097-.324-.467-.4003-.7816a5.877 5.877 0 01-.124-1.0771v-5.767h-1.63v-1.63h-.019z"/><path fill="#00B67A" d="M26.744 9.425h-9.875L13.818.026l-3.06 9.399-9.875-.01 7.998 5.815-3.06 9.389 7.997-5.805 7.988 5.805-3.05-9.389z"/><path fill="#005128" d="M19.442 17.356l-.686-2.126-4.938 3.584z"/></g></svg>
