<svg xmlns="http://www.w3.org/2000/svg" width="75" height="75" viewBox="0 0 75 75"><defs><linearGradient id="a" x1="-.159%" x2="99.821%" y1="49.981%" y2="49.981%"><stop offset="0%" stop-color="#498DF1"/><stop offset="100%" stop-color="#2EDB89"/></linearGradient></defs><path fill="url(#a)" d="M33.0313 29.0323l.1157.009a.7788.7788 0 01.2353.0774l.106.0661 10.4533 7.4411a.8169.8169 0 01.0995 1.2432l-.0995.0842-10.4022 7.422a.8488.8488 0 01-.4723.1531.817.817 0 01-.8062-.6844l-.0106-.1325-.032-14.863a.8169.8169 0 01.694-.8076l.119-.0086zm1.2823 3.4895l.0213 9.5307 6.6762-4.7629-6.6975-4.7678z"/><path fill="#515982" d="M20.1585 19.1237l.1664.0024 34.4797.0308c1.7645-.0863 3.2943 1.0946 3.6127 2.759l.0346.2197.0174.1795-.002 29.6415c-.1252 1.7424-1.6321 3.0841-3.397 3.1072l-.2218-.004-34.4607-.001c-1.8265.0893-3.4015-1.1792-3.6417-2.9362l-.023-.2221.0014-29.632c.1048-1.7572 1.6168-3.1204 3.434-3.1448zm34.4785 1.9547l-34.158-.0299c-.845.0403-1.5483.639-1.6792 1.3693l-.019.1583-.0051 28.9128c.0654.925.8074 1.6122 1.7833 1.648l34.0157.0021c.8798.0436 1.6685-.5804 1.8156-1.3376l.0207-.1531.0012-28.9596-.005-.0607c-.1085-.8753-.8302-1.5132-1.7702-1.5496z"/></svg>
