<svg width="40" height="12" viewBox="0 0 40 12" xmlns="http://www.w3.org/2000/svg"><g fill="#FFF" fill-rule="nonzero"><path d="M14.351 11.642L16.363.42h3.143l-1.949 11.22z"/><path d="M14.351 11.642L16.93.42h2.577l-1.949 11.22zM28.934.545C28.306.296 27.3.047 26.043.047c-3.143 0-5.406 1.558-5.406 3.802 0 1.683 1.572 2.556 2.829 3.117 1.257.561 1.634.935 1.634 1.434 0 .748-1.006 1.122-1.886 1.122-1.257 0-1.948-.187-3.017-.623l-.44-.187-.44 2.556c.754.311 2.137.623 3.583.623 3.331 0 5.531-1.559 5.531-3.927 0-1.31-.817-2.307-2.702-3.117-1.132-.561-1.823-.873-1.823-1.434 0-.499.565-.997 1.823-.997 1.068 0 1.822.187 2.388.436l.314.125.503-2.432z"/><path d="M28.934.545C28.306.296 27.3.047 26.043.047c-3.143 0-4.84 1.558-4.84 3.802 0 1.683 1.006 2.556 2.263 3.117 1.257.561 1.634.935 1.634 1.434 0 .748-1.006 1.122-1.886 1.122-1.257 0-1.948-.187-3.017-.623l-.44-.187-.44 2.556c.754.311 2.137.623 3.583.623 3.331 0 5.531-1.559 5.531-3.927 0-1.31-.817-2.307-2.702-3.117-1.132-.561-1.823-.873-1.823-1.434 0-.499.565-.997 1.823-.997 1.068 0 1.822.187 2.388.436l.314.125.503-2.432zM34.34.42c-.754 0-1.32.063-1.634.811l-4.715 10.41h3.395l.628-1.87h4.023l.377 1.87h3.017L36.791.422H34.34zm-1.446 7.481c.189-.56 1.257-3.304 1.257-3.304s.252-.685.44-1.122l.189 1.06s.629 2.805.754 3.429h-2.64V7.9z"/><path d="M35.094.42c-.754 0-1.32.063-1.634.811l-5.469 10.41h3.395l.628-1.87h4.023l.377 1.87h3.017L36.791.422h-1.697zm-2.2 7.481c.252-.623 1.257-3.304 1.257-3.304s.252-.685.44-1.122l.189 1.06s.629 2.805.754 3.429h-2.64V7.9zM8.569 8.275l-.315-1.62c-.565-1.87-2.388-3.928-4.4-4.925l2.829 9.974h3.394L15.17.484h-3.395L8.57 8.274z"/><path d="M8.569 8.275l-.315-1.62c-.565-1.87-2.388-3.928-4.4-4.925l2.829 9.974h3.394L15.17.484h-2.766L8.569 8.274z"/><path d="M-.169.42l.566.125c4.023.936 6.789 3.304 7.857 6.11l-1.131-5.3C6.934.609 6.369.422 5.677.422H-.169z"/><path d="M-.169.42c4.023.936 7.355 3.367 8.423 6.172L7.186 2.166A1.532 1.532 0 005.677.982L-.169.42z"/><path d="M-.169.42c4.023.936 7.355 3.367 8.423 6.172L7.5 4.161c-.189-.748-.44-1.496-1.32-1.808L-.169.421z"/><path d="M11.711 7.901l-2.137-2.12-1.005 2.37-.252-1.559c-.566-1.87-2.388-3.927-4.4-4.924l2.829 9.974h3.394l1.571-3.74zM17.557 11.642l-2.703-2.743-.503 2.743zM24.786 7.777c.251.249.377.436.314.685 0 .748-1.006 1.122-1.886 1.122-1.257 0-1.948-.187-3.017-.623l-.44-.187-.44 2.556c.754.312 2.137.623 3.583.623 2.011 0 3.646-.56 4.589-1.558l-2.703-2.618zM28.431 11.642h2.955l.628-1.87h4.023l.377 1.87h3.017L38.363 7.09 34.59 3.475l.189.998s.629 2.805.754 3.428h-2.64a306.79 306.79 0 001.257-3.304s.252-.685.44-1.122"/></g></svg>
