<svg xmlns="http://www.w3.org/2000/svg" width="75" height="75" viewBox="0 0 75 75"><defs><linearGradient id="a" x1="-1.725%" x2="101.725%" y1="49.94%" y2="49.94%"><stop offset="0%" stop-color="#3377DA"/><stop offset="100%" stop-color="#6AE6A7"/></linearGradient></defs><path fill="#515982" d="M42.1798 52.7557h-8.4004c-1.1045 0-2 .8955-2 2v3.8646c0 1.1046.8955 2 2 2h8.4004c1.1045 0 2-.8954 2-2v-3.8646c0-1.1045-.8955-2-2-2zm-8.4004 2h8.4004v3.8646h-8.4004v-3.8646z"/><path fill="#515982" d="M37.9796 46.9944c.5129 0 .9355.386.9933.8833l.0067.1167v5.7613c0 .5523-.4477 1-1 1-.5128 0-.9355-.386-.9933-.8833l-.0067-.1167v-5.7613c0-.5523.4477-1 1-1zm-5.639 8.6936c.5522 0 1 .4477 1 1 0 .5129-.3861.9355-.8834.9933l-.1167.0067H17.9976c-.5522 0-1-.4477-1-1 0-.5128.386-.9355.8834-.9932l.1166-.0068h14.343zm25.5905 0c.5523 0 1 .4477 1 1 0 .5129-.386.9355-.8834.9933l-.1166.0067H43.5882c-.5523 0-1-.4477-1-1 0-.5128.386-.9355.8834-.9932l.1166-.0068h14.3429z"/><path fill="#515982" d="M56.4258 18.1203h-36.937a2.4967 2.4967 0 00-1.765.7354 2.4966 2.4966 0 00-.7262 1.7686v25.5773a2.4887 2.4887 0 002.4888 2.4888h36.934c1.3746-.0073 2.4809-1.1194 2.4809-2.4888V20.6193c.0036-1.3703-1.1026-2.4882-2.4755-2.499zm-36.9343 2H56.41a.495.495 0 01.4912.4964v25.585a.4887.4887 0 01-.4862.4887H19.4864a.4887.4887 0 01-.4888-.4888V20.6217c0-.1362.0515-.2623.1441-.3555a.4953.4953 0 01.3498-.146z"/><path fill="url(#a)" d="M27.7182 33.3412a1.0128 1.0128 0 011.4316.001c.3946.3957.3945 1.036-.0005 1.431l-1.9054 1.9093 13.2445-.0007c.4638 0 .8595.3132.9776.7528l.0288.1509.006.1087a1.0122 1.0122 0 01-1.0124 1.0124l-13.2477.0005 1.9086 1.908c.3192.3192.383.8034.1743 1.1948l-.0911.142-.0842.0959a1.0125 1.0125 0 01-.7145.2953c-.267 0-.523-.1054-.7161-.2964l-3.3867-3.3872c-.2202-.2202-.357-.5108-.3853-.8024l-.011-.0857-.0033-.0772a.806.806 0 01.0118-.1427l.0228-.1456a1.3515 1.3515 0 01.365-.6775zm19.1052-9.276c.267 0 .523.1055.7161.2964l3.3867 3.3872c.2202.2202.357.5108.3853.8024a.969.969 0 01.0143.163.806.806 0 01-.0118.1426l-.0228.1457a1.3515 1.3515 0 01-.365.6775l-3.3872 3.3872a1.0128 1.0128 0 01-1.4316-.001c-.3946-.3957-.3945-1.0361.0005-1.431l1.9066-1.909-13.2457.0003c-.4638 0-.8595-.3132-.9776-.7527l-.0288-.151-.006-.1087c0-.5593.4532-1.0124 1.0124-1.0124l13.2473-.0002-1.9082-1.9083c-.3192-.3192-.383-.8033-.1743-1.1948l.0911-.1419.0842-.096a1.0125 1.0125 0 01.7145-.2953z"/></svg>
