<svg xmlns="http://www.w3.org/2000/svg" width="75" height="75" viewBox="0 0 75 75"><defs><linearGradient id="a" x1="-.92%" x2="100.92%" y1="50.006%" y2="50.006%"><stop offset="0%" stop-color="#3F88F3"/><stop offset="100%" stop-color="#55EDA1"/></linearGradient></defs><path fill="url(#a)" d="M56.4258 18.1203c1.3729.0108 2.479 1.1287 2.4755 2.499v25.5823c0 1.3694-1.1063 2.4815-2.481 2.4888H38.9786v4.065l3.2012.0003c1.0543 0 1.9181.816 1.9945 1.8508l.0055.1492-.0002.9316 13.7515.0007c.5523 0 1 .4477 1 1 0 .5129-.386.9355-.8834.9933l-.1166.0067-13.7515-.0007.0002.933c0 1.0544-.8159 1.9182-1.8508 1.9945l-.1492.0055h-8.4004c-1.1045 0-2-.8954-2-2l-.0008-.933-13.781.0007c-.5522 0-1-.4477-1-1 0-.5128.386-.9355.8834-.9932l.1166-.0068 13.781-.0007.0008-.9316c0-1.0543.816-1.9181 1.8508-1.9945l.1492-.0055 3.1992-.0004v-4.065H19.4864a2.4888 2.4888 0 01-1.615-.595l-.1448-.1339a2.4887 2.4887 0 01-.729-1.7598V20.6243a2.4966 2.4966 0 01.7262-1.7686 2.4967 2.4967 0 011.765-.7354zm-14.246 36.6354h-8.4004v3.8646h8.4004v-3.8646zM56.41 20.1203H19.4915a.4953.4953 0 00-.3498.146c-.0926.0931-.144.2192-.144.3554v25.58a.4887.4887 0 00.4887.4887H56.415a.4887.4887 0 00.4862-.4888v-25.585a.495.495 0 00-.4912-.4963z"/><path fill="#2AE88E" d="M27.7182 33.3412a1.0128 1.0128 0 011.4316.001c.3946.3957.3945 1.036-.0005 1.431l-1.9054 1.9093 13.2445-.0007c.4638 0 .8595.3132.9776.7528l.0288.1509.006.1087a1.0122 1.0122 0 01-1.0124 1.0124l-13.2477.0005 1.9086 1.908c.3192.3192.383.8034.1743 1.1948l-.0911.142-.0842.0959a1.0125 1.0125 0 01-.7145.2953c-.267 0-.523-.1054-.7161-.2964l-3.3867-3.3872c-.2202-.2202-.357-.5108-.3853-.8024l-.011-.0857-.0033-.0772a.806.806 0 01.0118-.1427l.0228-.1456a1.3515 1.3515 0 01.365-.6775zm19.1052-9.276c.267 0 .523.1055.7161.2964l3.3867 3.3872c.2202.2202.357.5108.3853.8024a.969.969 0 01.0143.163.806.806 0 01-.0118.1426l-.0228.1457a1.3515 1.3515 0 01-.365.6775l-3.3872 3.3872a1.0128 1.0128 0 01-1.4316-.001c-.3946-.3957-.3945-1.0361.0005-1.431l1.9066-1.909-13.2457.0003c-.4638 0-.8595-.3132-.9776-.7527l-.0288-.151-.006-.1087c0-.5593.4532-1.0124 1.0124-1.0124l13.2473-.0002-1.9082-1.9083c-.3192-.3192-.383-.8033-.1743-1.1948l.0911-.1419.0842-.096a1.0125 1.0125 0 01.7145-.2953z"/></svg>
